<?xml version="1.0" standalone="no"?>
<!DOCTYPE svg PUBLIC "-//W3C//DTD SVG 1.1//EN" "http://www.w3.org/Graphics/SVG/1.1/DTD/svg11.dtd" >
<svg xmlns="http://www.w3.org/2000/svg">
<metadata>
This is a custom SVG webfont generated by Font Squirrel.
Copyright   : Copyright c 2010 by David Brezina All rights reserved
Designer    : David Brezina
Foundry     : David Brezina
Foundry URL : wwwtypetogethercom
</metadata>
<defs>
<font id="webfontfhIY72sp" horiz-adv-x="1105" >
<font-face units-per-em="2048" ascent="1536" descent="-512" />
<missing-glyph horiz-adv-x="428" />
<glyph unicode=" "  horiz-adv-x="428" />
<glyph unicode="&#x09;" horiz-adv-x="428" />
<glyph unicode="&#xa0;" horiz-adv-x="428" />
<glyph unicode="!" horiz-adv-x="626" d="M412 391q-57 -10 -103 -10q-43 0 -84 10q-94 479 -94 778q0 121 14 191q86 16 166 16t174 -16q10 -76 11 -184q0 -269 -84 -785zM147 129q0 61 48.5 103t117.5 42q68 0 115 -42t47 -103q0 -63 -47 -110.5t-115 -47.5q-70 0 -118 47.5t-48 110.5z" />
<glyph unicode="&#x22;" horiz-adv-x="851" d="M299 1055q-80 -35 -172 -23q-53 311 -59 537q104 35 251 30l25 -24q-12 -305 -45 -520zM721 1055q-80 -35 -172 -23q-53 311 -60 537q104 35 252 30l25 -24q-12 -305 -45 -520z" />
<glyph unicode="#" horiz-adv-x="1185" d="M1120 596h-202l-39 -223h172q25 -80 0 -187h-205l-37 -206q-106 -10 -188 32l30 174h-219l-37 -209q-104 -10 -188 35l31 174h-177q-18 98 0 187h209l39 223h-176q-29 84 0 186h209l37 205q109 10 188 -37l-30 -168h219l37 205q109 10 188 -37l-31 -168h170 q29 -94 0 -186zM504 596l-39 -223h219l39 223h-219z" />
<glyph unicode="$" horiz-adv-x="985" d="M399 -137v139q-246 10 -342 74q2 160 41 286q70 18 156 -8q8 -102 18 -159q53 -20 127 -27v274l-61 23q-109 39 -187.5 109.5t-78.5 168.5q0 133 101 205t249 90v140q74 33 151 0v-138q174 -14 295 -59q-2 -147 -22 -258q-90 -20 -158 8q-2 66 -18 131q-55 12 -97 15 v-242l97 -35q250 -90 250 -258q0 -129 -101.5 -225.5t-267.5 -114.5v-139q-89 -25 -152 0zM637 285q0 51 -86 98v-207q39 10 45 17q41 26 41 92zM350 782q0 -49 72 -88v176q-25 -2 -35 -8q-37 -29 -37 -80z" />
<glyph unicode="%" horiz-adv-x="1499" d="M354 1231q-33 0 -45 -17q-37 -55 -37 -161q0 -98 25 -163t68 -65q35 0 45 15q37 55 36 164q0 98 -24.5 162.5t-67.5 64.5zM346.5 655q-151.5 0 -234.5 103.5t-83 255.5q0 150 96 268.5t247.5 118.5t234.5 -104.5t83 -256.5q0 -147 -96 -266t-247.5 -119zM1135 549 q-33 0 -45 -17q-37 -55 -37 -161q0 -98 24.5 -163t67.5 -65q35 0 45 15q37 55 37 164q0 98 -24.5 162.5t-67.5 64.5zM1126.5 -27q-151.5 0 -234.5 103.5t-83 255.5q0 150 96 268.5t248 118.5t234.5 -104.5t82.5 -256.5q0 -147 -96 -266t-247.5 -119zM254 59l858 1360 q86 -23 137 -94l-858 -1354q-94 31 -137 88z" />
<glyph unicode="&#x26;" horiz-adv-x="1558" d="M1370 707q-66 -225 -266 -433q135 -109 213 -108.5t168 33.5q55 -37 61 -113q-63 -45 -161.5 -75.5t-190.5 -30.5q-123 0 -295 116q-170 -133 -430 -133q-176 0 -306 94.5t-130 266.5q0 254 291 411q-88 154 -88 262q0 195 135 303.5t315 108.5q129 0 217 -76t88 -200 q0 -270 -311 -420q119 -158 299 -326q143 174 160 322q-59 25 -142 34q0 90 17 140q35 0 127 -3t153 -3q88 0 217 6q12 -37 13 -125q-62 -37 -154 -51zM760 207q-197 176 -346 387q-78 -84 -78 -184q0 -102 79 -166t183 -64q90 0 162 27zM518 1053q0 -88 76 -217 q127 104 127 200q0 66 -28.5 110t-74.5 44q-61 0 -79 -23q-21 -30 -21 -114z" />
<glyph unicode="'" horiz-adv-x="430" d="M299 1055q-80 -35 -172 -23q-53 311 -59 537q104 35 251 30l25 -24q-12 -305 -45 -520z" />
<glyph unicode="(" horiz-adv-x="714" d="M115 664q0 557 426 1122q111 -20 155 -96q-150 -281 -210 -531t-60 -520q0 -508 270 -1014q-63 -72 -161 -88q-420 562 -420 1127z" />
<glyph unicode=")" horiz-adv-x="714" d="M600 659q0 -557 -426 -1122q-111 20 -156 96q147 281 209 531t62 518q0 510 -271 1016q63 72 162 88q420 -562 420 -1127z" />
<glyph unicode="*" horiz-adv-x="825" d="M401 1151q-109 -203 -161 -266q-96 47 -152 155q135 104 266 154q-211 -12 -311 4q-8 102 59 211q63 -27 144.5 -75t122.5 -83q-115 162 -154 271q92 63 211 57q23 -174 -2 -309q109 203 162 266q96 -47 151 -156q-135 -104 -266 -153q211 12 311 -4q8 -102 -59 -211 q-63 27 -144 75t-122 82q115 -162 153 -270q-92 -63 -211 -57q-23 174 2 309z" />
<glyph unicode="+" d="M977 442h-326v-319q-96 -39 -200 0v319h-318q-39 96 0 201h318v324q100 35 200 0v-324h326q35 -101 0 -201z" />
<glyph unicode="," horiz-adv-x="622" d="M121 184q8 74 64.5 120t131.5 46q88 0 142.5 -52t54.5 -136q0 -123 -114.5 -259t-256.5 -198q-66 23 -69 76q141 150 141 276q0 92 -94 127z" />
<glyph unicode="-" horiz-adv-x="782" d="M649 418l-518 -8q-18 100 4 206l510 11q24 -109 4 -209z" />
<glyph unicode="." horiz-adv-x="622" d="M115 166q0 80 56 132t140 52t140.5 -52t56.5 -132q0 -82 -57.5 -138.5t-139.5 -56.5t-139 56.5t-57 138.5z" />
<glyph unicode="/" horiz-adv-x="909" d="M862 1354l-631 -1565q-125 18 -223 82l635 1571q131 -20 219 -88z" />
<glyph unicode="0" horiz-adv-x="1177" d="M567 170q127 0 187.5 107.5t60.5 259.5q0 186 -82 290q-35 45 -123 45q-127 0 -187.5 -107.5t-60.5 -258.5q0 -182 84 -291q35 -45 121 -45zM602 -29q-127 0 -231.5 51.5t-171 133.5t-102.5 181t-36 202q0 129 52.5 245.5t173.5 201.5t288 85q127 0 231.5 -51t171 -133 t102.5 -181.5t36 -201.5q0 -129 -52 -246t-173 -202t-289 -85z" />
<glyph unicode="1" horiz-adv-x="823" d="M596 459v-127q0 -82 6 -158q123 -10 203 -37q0 -100 -17 -139q-135 4 -339 4q-90 0 -207 -2t-156 -2q-18 41 -18 139q123 10 225 39q8 51 8 115v538h-235q-18 57 -19 134q240 86 533 102l24 -25q-8 -272 -8 -581z" />
<glyph unicode="2" horiz-adv-x="989" d="M418 2h-303q-47 61 -52 205q487 295 488 500q0 70 -48 117.5t-128 47.5q-47 0 -90 -14q-12 -76 -13 -196q-88 -29 -168 -15q-51 154 -51 299q195 125 404 125q178 0 286.5 -87t108.5 -224q0 -250 -401 -506l-97 -61v-9h340q33 82 60 203q88 10 182 -8q4 -135 -16 -356 l-25 -25q-125 4 -477 4z" />
<glyph unicode="3" horiz-adv-x="915" d="M825 760q0 -92 -62.5 -170t-170.5 -131q285 -63 285 -288.5t-207 -376t-617 -171.5q-39 53 -26 135q233 41 389.5 134.5t156.5 213.5q0 90 -63.5 143.5t-157.5 53.5q-41 0 -86 -4l-24 25q-14 90 26 180q106 2 182 63.5t76 145.5q0 72 -52 115.5t-136 43.5q-49 0 -96 -14 q-12 -76 -13 -196q-88 -29 -168 -15q-51 154 -51 299q195 125 412 125q188 0 295.5 -84t107.5 -227z" />
<glyph unicode="4" horiz-adv-x="1048" d="M1032 63h-203v-385q-121 -37 -251 -36l-25 24v397h-483q-51 68 -52 193l500 750q143 49 287 49l24 -25v-768l220 -16q-1 -103 -17 -183zM489 606l-233 -346h297v541h-8z" />
<glyph unicode="5" horiz-adv-x="878" d="M854 199q0 -238 -207 -395.5t-616 -180.5q-39 53 -27 135q231 45 389 146.5t158 232.5q0 113 -68.5 183.5t-177.5 70.5q-111 0 -203 -24l-24 24v625l24 24h195q311 0 473 4l25 -24q-2 -98 -21 -176h-414v-264q37 4 111 4q152 0 267.5 -107.5t115.5 -277.5z" />
<glyph unicode="6" horiz-adv-x="1089" d="M924 1233q-260 -94 -397.5 -220t-157.5 -321h10q135 168 291 168q166 0 274.5 -109.5t108.5 -277.5q0 -231 -157 -366.5t-359 -135.5q-123 0 -219.5 57.5t-147.5 146.5t-76.5 179t-25.5 174q0 129 38.5 250t125.5 241t252 211t390 132q46 -43 50 -129zM598 653 q-121 0 -223 -151q18 -143 76.5 -237.5t136.5 -94.5t114 33q59 55 60 205q0 111 -48 178t-116 67z" />
<glyph unicode="7" horiz-adv-x="964" d="M152 -262l-5 33l560 1073h-465q-25 -143 -31 -264q-31 -12 -83 -12.5t-85 12.5q-35 195 -27 440l25 24q127 -4 481 -4h363q43 -53 61 -174q-299 -604 -538 -1245q-190 2 -256 117z" />
<glyph unicode="8" horiz-adv-x="1091" d="M741 770v-10q291 -141 291 -332q0 -178 -156.5 -321.5t-394.5 -143.5q-199 0 -310.5 86t-111.5 252q0 205 263 338v8q-227 125 -228 289q0 162 147.5 291t309.5 129q195 0 306.5 -84t111.5 -201q-1 -192 -228 -301zM739 334q0 115 -243 231q-164 -90 -164 -217 q0 -98 61.5 -142t145.5 -44q49 0 95 13t60 28q45 47 45 131zM387 1026q0 -96 191 -190q119 82 118 174q0 55 -49 101t-121 46q-76 0 -102 -27q-37 -36 -37 -104z" />
<glyph unicode="9" horiz-adv-x="1089" d="M166 -244q268 102 405.5 238.5t149.5 355.5h-8q-139 -168 -293 -168q-166 0 -274.5 109.5t-108.5 277.5q0 231 156.5 366.5t359.5 135.5q123 0 219 -59.5t147.5 -152.5t77 -186t25.5 -179q0 -104 -22.5 -205t-81 -208.5t-146.5 -193.5t-231.5 -156.5t-325.5 -103.5 q-45 43 -49 129zM492 389q119 0 221 150q-23 145 -79 239t-132 94q-78 0 -115 -32q-59 -55 -59 -205q0 -111 48 -178.5t116 -67.5z" />
<glyph unicode=":" horiz-adv-x="622" d="M119 154q0 72 56 122t136 50t136.5 -50.5t56.5 -121.5q0 -76 -56.5 -129.5t-136.5 -53.5q-78 0 -135 53.5t-57 129.5zM119 819q0 72 56 122t136 50t136.5 -50t56.5 -122q0 -76 -56.5 -129t-136.5 -53q-78 0 -135 53t-57 129z" />
<glyph unicode=";" horiz-adv-x="622" d="M109 184q8 72 62 119t124 47q94 0 150.5 -51t56.5 -137q0 -123 -116 -258t-259 -197q-61 20 -66 74q141 150 142 276q0 96 -94 127zM119 819q0 72 56 122t136 50t136.5 -50t56.5 -122q0 -76 -56.5 -129t-136.5 -53q-78 0 -135 53t-57 129z" />
<glyph unicode="&#x3c;" d="M950 63l-870 412q-23 84 0 178l872 412q74 -66 86 -178l-690 -322l688 -319q-2 -99 -86 -183z" />
<glyph unicode="=" d="M977 633h-844q-39 96 0 201h844q35 -101 0 -201zM977 252h-844q-39 96 0 201h844q35 -101 0 -201z" />
<glyph unicode="&#x3e;" d="M152 1065l870 -412q23 -84 0 -178l-872 -412q-74 66 -87 179l689 321l-686 320q2 98 86 182z" />
<glyph unicode="?" horiz-adv-x="880" d="M268 983q-94 -27 -178 -10q-37 158 -37 315q184 115 391 115q209 0 315.5 -98.5t106.5 -257.5q0 -92 -47 -175.5t-104 -131.5l-119 -103q-61 -55 -82 -90q-12 -23 -12 -131q-92 -49 -242 -27q-35 104 -35 193q0 47 51.5 99t113 92t112.5 94.5t51 105.5q0 90 -55.5 159.5 t-137.5 69.5q-29 0 -59 -6q-25 -104 -33 -213zM221 129q0 61 48 103t118 42q68 0 115 -42t47 -103q0 -63 -47 -110.5t-115 -47.5q-70 0 -118 47.5t-48 110.5z" />
<glyph unicode="@" horiz-adv-x="1966" d="M526 473q0 227 131 384t312 157q250 0 448 -127v-570q0 -49 4 -139q61 0 121 29t80 65q53 88 53 244q0 283 -178 461t-475 178q-125 0 -265.5 -47t-187.5 -92q-233 -219 -233 -545q0 -289 169 -480.5t421 -191.5q162 0 329 56q57 -51 50 -129q-197 -125 -463 -125 q-322 0 -547 223t-225 569q0 268 128 485.5t365.5 344.5t542.5 127q182 0 335.5 -61.5t254 -166t157 -239.5t56.5 -285q0 -281 -170 -454t-441 -173q-43 0 -82.5 41t-64.5 107q-137 -147 -279 -148q-166 0 -256 141.5t-90 360.5zM963 188q57 0 159 103v489q-66 35 -125 35 q-88 0 -108 -27q-31 -37 -51.5 -111.5t-20.5 -148.5q0 -137 41.5 -238.5t104.5 -101.5z" />
<glyph unicode="A" horiz-adv-x="1468" d="M987 176l-78 215q-174 10 -305 10h-137l-78 -225l182 -35q0 -9 1 -19q0 -65 -13 -124q-84 4 -287 4q-55 0 -136 -2t-109 -2q-16 63 -17 143q72 8 164 39l420 1168q123 35 276 34l439 -1202q78 -8 151 -39v-19q0 -65 -12 -124q-76 4 -307 4q-68 0 -178.5 -2t-153.5 -2 q-16 63 -16 143zM713 1116l-187 -541h318l-119 330l-4 211h-8z" />
<glyph unicode="B" horiz-adv-x="1282" d="M370.5 2q-69.5 0 -176 -2t-145.5 -2q-16 63 -16 143q80 8 178 39q10 49 10 125v604q0 156 -10 283q-98 31 -178 39q0 80 16 143q39 0 145.5 -2t176.5 -2q88 0 223 5t182 5q160 0 265.5 -91t105.5 -228q0 -197 -201 -299q145 -39 225 -126t80 -192q0 -172 -159.5 -312 t-395.5 -140q-49 0 -152.5 5t-173 5zM627 621h-103v-426h94q203 0 246 32q72 57 72 181q0 213 -309 213zM666 1182q-6 0 -142 -6v-367h64q127 0 184 53t57 129q0 80 -46.5 135.5t-116.5 55.5z" />
<glyph unicode="C" horiz-adv-x="1228" d="M918 1163q-68 12 -191 13q-160 0 -215 -43q-18 -14 -48 -59.5t-59.5 -137.5t-29.5 -193q0 -246 101.5 -396t301.5 -150q94 0 168 18q16 127 27 248q61 19 122 19q30 0 60 -5q31 -164 31 -428q-217 -80 -455 -80q-328 0 -502 194.5t-174 498.5q0 133 46 263t132 237.5 t225.5 174t309.5 66.5q238 0 397 -64q0 -250 -47 -413q-29 -5 -57 -5q-58 0 -117 19q-3 92 -26 223z" />
<glyph unicode="D" horiz-adv-x="1427" d="M371 2q-70 0 -176.5 -2t-145.5 -2q-16 63 -16 143q80 8 178 39q10 49 10 125v604q0 156 -10 283q-98 31 -178 39q0 80 16 143q39 0 145.5 -2t176.5 -2q68 0 215 5t217 5q268 0 418.5 -187t150.5 -488q0 -281 -188.5 -497t-470.5 -216q-47 0 -158.5 5t-183.5 5zM694 1182 q-59 0 -170 -4v-983h172q66 0 135.5 15t94.5 36q127 106 127 381q0 141 -38 264t-122 207t-199 84z" />
<glyph unicode="E" horiz-adv-x="1208" d="M371 1370h252q354 0 481 4l24 -26q1 -39 1 -76q0 -196 -27 -324q-52 -9 -98 -9t-84 9q-10 121 -31 226h-365v-381l365 12l24 -25q-4 -119 -22 -180l-367 10v-411h391q39 106 74 252q27 4 55 3q60 0 123 -18q0 -174 -22 -411l-25 -27q-127 4 -481 4h-264q-70 0 -178.5 -2 t-147.5 -2q-16 63 -16 143q80 8 178 39q10 49 10 125v604q0 154 -10 283q-98 31 -178 39q0 80 16 143q39 0 145.5 -2t176.5 -2z" />
<glyph unicode="F" horiz-adv-x="1142" d="M895 776l25 -24q-4 -119 -23 -181l-373 11v-232q0 -98 8 -170q121 -8 232 -39q1 -15 1 -28q0 -63 -15 -115q-96 4 -379 4q-70 0 -176.5 -2t-145.5 -2q-16 63 -16 143q80 8 178 39q10 49 10 125v604q0 156 -10 283q-98 31 -178 39q0 80 16 143q39 0 146.5 -2t177.5 -2h252 q354 0 481 4l24 -26q1 -41 1 -80q0 -206 -27 -344q-52 -9 -97.5 -9.5t-84.5 9.5q-10 133 -31 250h-367v-410z" />
<glyph unicode="G" horiz-adv-x="1411" d="M369 743q0 -252 106.5 -411.5t306.5 -159.5q70 0 146 6v23q0 156 -10 282q-117 31 -209 39q0 82 18 144q37 0 143.5 -2t194.5 -2q246 0 301 4q13 -59 13 -125q0 -9 -1 -19q-74 -31 -151 -39q-8 -100 -8 -282v-119q-299 -113 -551 -113q-293 0 -453 195.5t-160 497.5 q0 133 47.5 263t134.5 237.5t229 174t318 66.5q236 0 406 -62q0 -231 -47 -395q-30 -5 -61 -5q-61 0 -121 20q-6 111 -25 223q-74 12 -174 12q-190 0 -244 -45q-41 -31 -95 -144.5t-54 -263.5z" />
<glyph unicode="H" horiz-adv-x="1593" d="M1063 1192q-98 31 -178 39q0 80 16 143q39 0 145.5 -2t176.5 -2q236 0 315 4q13 -59 13 -124q0 -9 -1 -19q-82 -31 -166 -39q-8 -100 -8 -283v-559q0 -98 8 -170q84 -8 166 -39q0 -9 1 -19q0 -65 -13 -124q-80 4 -315 4q-70 0 -176.5 -2t-145.5 -2q-16 63 -16 143 q80 8 178 39q10 49 10 125v297q-229 14 -387 14h-162v-266q0 -98 8 -170q84 -8 166 -39q0 -9 1 -19q0 -65 -13 -124q-80 4 -315 4q-70 0 -176.5 -2t-145.5 -2q-16 63 -16 143q80 8 178 39q10 49 10 125v604q0 156 -10 283q-98 31 -178 39q0 80 16 143q39 0 145.5 -2 t176.5 -2q236 0 315 4q13 -59 13 -124q0 -9 -1 -19q-82 -31 -166 -39q-8 -100 -8 -283v-100h549v100q0 156 -10 283z" />
<glyph unicode="I" horiz-adv-x="741" d="M211 1192q-98 31 -178 39q0 80 16 143q39 0 145.5 -2t176.5 -2q236 0 315 4q13 -59 13 -124q0 -9 -1 -19q-82 -31 -166 -39q-8 -100 -8 -283v-559q0 -98 8 -170q84 -8 166 -39q0 -9 1 -19q0 -65 -13 -124q-80 4 -315 4q-70 0 -176.5 -2t-145.5 -2q-16 63 -16 143 q80 8 178 39q10 49 10 125v604q0 156 -10 283z" />
<glyph unicode="J" horiz-adv-x="700" d="M504 909v-821q0 -246 -155.5 -379t-432.5 -149q-41 51 -41 111q0 15 2 30q324 127 324 410v798q0 156 -11 283q-98 31 -178 39q0 80 17 143q39 0 146.5 -2t176.5 -2q233 0 314 4q13 -59 12 -124v-19q-82 -31 -166 -39q-8 -101 -8 -283z" />
<glyph unicode="K" horiz-adv-x="1458" d="M1245 1192l-366 -377l409 -637q78 -8 152 -39v-19q0 -65 -13 -124q-86 4 -266 4h-135l-362 594l-140 -145v-99q0 -98 8 -170q84 -8 166 -39q0 -9 1 -19q0 -65 -13 -124q-80 4 -315 4q-70 0 -176.5 -2t-145.5 -2q-16 63 -16 143q80 8 178 39q10 49 10 125v604 q0 156 -10 283q-98 31 -178 39q0 80 16 143q39 0 145.5 -2t176.5 -2q236 0 315 4q13 -59 13 -124q0 -9 -1 -19q-82 -31 -166 -39q-8 -100 -8 -283v-182l439 469l-160 35q0 80 16 143q43 0 140.5 -2t154.5 -2q205 0 275 4q13 -59 12 -124v-19q-78 -31 -156 -39z" />
<glyph unicode="L" horiz-adv-x="1181" d="M524 909v-710h391q43 147 74 301q28 5 58 4q59 0 124 -19q0 -236 -22 -460l-25 -27q-127 4 -481 4h-272q-70 0 -176.5 -2t-145.5 -2q-16 63 -16 143q80 8 178 39q10 49 10 125v604q0 156 -10 283q-98 31 -178 39q0 80 16 143q39 0 145.5 -2t176.5 -2q285 0 381 4 q13 -59 12 -124v-19q-109 -31 -232 -39q-8 -101 -8 -283z" />
<glyph unicode="M" horiz-adv-x="1900" d="M1421 180l-75 764l16 225h-8l-305 -1144q-111 -35 -273 -35l-241 954l-19 225h-8l-98 -987l165 -41q0 -9 1 -19q0 -65 -13 -124q-80 4 -297 4q-37 0 -118.5 -2t-120.5 -2q-16 63 -17 143q80 8 178 39l103 1012q-98 31 -178 39q0 80 16 143q35 0 129 -2t158 -2 q203 0 319 -6l193 -756l8 -225h8l242 981q117 6 287 6q229 0 305 4q13 -59 12 -124v-19q-82 -31 -166 -39l98 -1012q84 -8 166 -39q0 -9 1 -19q0 -65 -13 -124q-78 4 -305 4q-68 0 -169.5 -2t-139.5 -2q-16 63 -17 143z" />
<glyph unicode="N" horiz-adv-x="1531" d="M1335 25q-145 -35 -340 -35l-499 884l-47 226h-9v-750q0 -98 9 -170q84 -8 165 -39q0 -9 1 -19q0 -65 -13 -124q-80 4 -276 4q-47 0 -140.5 -2t-136.5 -2q-16 63 -16 143q80 8 178 39q10 49 10 125v604q0 156 -10 283q-98 31 -178 39q0 80 16 143q41 0 141.5 -2t155.5 -2 q158 0 227 -8l484 -852l51 -225h8v624q0 156 -10 283q-98 31 -178 39q0 80 16 143q43 0 139.5 -2t143.5 -2q193 0 270 4q13 -59 13 -124q0 -9 -1 -19q-82 -31 -166 -39q-8 -100 -8 -283v-884z" />
<glyph unicode="O" horiz-adv-x="1421" d="M690 -37q-301 0 -468 196.5t-167 502.5q0 182 80 351t238.5 282.5t357.5 113.5q299 0 467 -196.5t168 -501.5q0 -182 -80 -351.5t-238.5 -283t-357.5 -113.5zM748 190q55 0 111 19.5t73 40.5q115 135 115 379q0 240 -92.5 396.5t-280.5 156.5q-55 0 -111.5 -19.5 t-73.5 -40.5q-115 -135 -114 -379q0 -240 92.5 -396.5t280.5 -156.5z" />
<glyph unicode="P" horiz-adv-x="1230" d="M370.5 1370q69.5 0 208 5t191.5 5q205 0 321.5 -112.5t116.5 -274.5q0 -201 -171 -355.5t-400 -154.5q-43 0 -113 4v-137q0 -98 8 -170q121 -8 232 -39q1 -15 1 -28q0 -63 -15 -115q-96 4 -379 4q-70 0 -176.5 -2t-145.5 -2q-16 63 -16 143q80 8 178 39q10 49 10 125v604 q0 156 -10 283q-98 31 -178 39q0 80 16 143q39 0 145.5 -2t176 -2zM684 1182q-53 0 -160 -4v-486q29 -2 90 -2q68 0 129.5 15.5t71.5 25.5q74 63 74 217q0 92 -54.5 163t-150.5 71z" />
<glyph unicode="Q" horiz-adv-x="1421" d="M1366 711q0 -240 -139.5 -451t-366.5 -274q135 -147 320 -148q70 0 127 8q31 -47 31 -108q0 -23 -5 -49q-137 -59 -389 -60q-143 0 -403 351q-231 47 -358.5 232t-127.5 450q0 182 80 351t238.5 282.5t357.5 113.5q299 0 467 -196.5t168 -501.5zM748 190q55 0 111 19.5 t73 40.5q115 135 115 379q0 240 -92.5 396.5t-280.5 156.5q-55 0 -111.5 -19.5t-73.5 -40.5q-115 -135 -114 -379q0 -240 92.5 -396.5t280.5 -156.5z" />
<glyph unicode="R" horiz-adv-x="1368" d="M928 0l-258 557h-21q-63 0 -125 6v-213q0 -98 8 -170q84 -8 166 -39q0 -9 1 -19q0 -65 -13 -124q-80 4 -315 4q-70 0 -176.5 -2t-145.5 -2q-16 63 -16 143q80 8 178 39q10 49 10 125v604q0 156 -10 283q-98 31 -178 39q0 80 16 143q39 0 145.5 -2t176 -2t207 5t190.5 5 q203 0 320.5 -99t117.5 -249q0 -111 -67.5 -213t-180.5 -172l232 -469q84 -8 166 -39v-19q0 -65 -13 -124q-90 4 -274 4h-141zM684 1182q-106 0 -160 -4v-416q29 -2 90 -2q45 0 90.5 7t71 15.5t31.5 12.5q80 59 80 186q0 78 -54.5 139.5t-148.5 61.5z" />
<glyph unicode="S" d="M43 70q6 217 49 393q33 9 70 9q53 0 112 -19q8 -133 23 -240q94 -39 219 -39q51 0 99.5 14.5t60.5 24.5q51 45 51 147q0 111 -211 195l-158 63q-289 119 -288 369q0 207 148.5 311.5t350.5 104.5q236 0 432 -82q-2 -190 -32 -348q-44 -12 -83 -12q-53 0 -95 22 q-6 96 -25 193q-78 27 -203 26q-39 0 -82 -9t-51 -15q-47 -37 -47 -117q0 -33 16.5 -61.5t53 -52t60.5 -36t73 -34.5l168 -76q291 -129 290 -359q0 -203 -138 -338t-367 -135q-310 1 -496 101z" />
<glyph unicode="T" horiz-adv-x="1329" d="M1067 1174h-252v-824q0 -98 8 -170q121 -8 232 -39q1 -15 0 -28q0 -63 -15 -115q-96 4 -378 4q-84 0 -211 -2t-172 -2q-20 59 -21 143q106 8 244 39q10 49 10 125v869h-250q-25 -152 -31 -275q-39 -9 -84.5 -9t-97.5 9q-28 161 -28 357q0 46 2 94l24 24q127 -4 481 -4 h273q354 0 481 4l25 -24q2 -48 1 -94q0 -196 -28 -357q-52 -9 -97.5 -9t-84.5 9q-6 123 -31 275z" />
<glyph unicode="U" horiz-adv-x="1458" d="M1272 909v-342q0 -272 -137.5 -438t-434.5 -166q-250 0 -377.5 123t-127.5 393v430q0 156 -11 283q-98 31 -178 39q0 80 17 143q39 0 145 -2t176 -2q236 0 315 4q13 -59 13 -124v-19q-82 -31 -166 -39q-8 -100 -8 -283v-331q0 -408 282 -408q61 0 116.5 21.5t76.5 46.5 q70 84 69 274v397q0 156 -10 283q-98 31 -178 39q0 80 16 143q43 0 138.5 -2t146.5 -2q199 0 279 4q13 -59 12 -124v-19q-82 -31 -166 -39q-8 -101 -8 -283z" />
<glyph unicode="V" horiz-adv-x="1468" d="M1090 1196l-195 35q0 72 12 143q35 0 127 -2t150 -2q195 0 262 4q11 -61 10 -123v-20q-74 -31 -151 -39l-420 -1167q-123 -35 -277 -35l-438 1202q-92 31 -164 39q0 80 17 143q39 0 145 -2t176 -2q238 0 318 4q13 -59 12 -124v-19l-182 -35l262 -729l4 -211h8z" />
<glyph unicode="W" horiz-adv-x="2043" d="M494 -10l-324 1202q-92 31 -164 39q0 80 17 143q41 0 146 -2t173 -2q236 0 313 4q13 -59 13 -124v-19l-183 -35l179 -713l4 -225h8l256 1090q119 35 301 34l221 -893v-225h8l213 938l-194 33q0 72 12 139q33 0 122 -2t148 -2q193 0 258 4q11 -61 11 -123v-20 q-74 -31 -152 -39l-293 -1167q-121 -35 -307 -35l-209 780l-16 227h-8l-240 -972q-118 -35 -313 -35z" />
<glyph unicode="X" horiz-adv-x="1419" d="M420 176l147 -35q0 -9 1 -19q0 -65 -13 -124q-80 4 -279 4q-55 0 -139 -2t-114 -2q-16 63 -17 143q80 8 178 39l342 508l-348 504q-92 31 -164 39q0 80 17 143q37 0 145.5 -2t183.5 -2q252 0 340 4q13 -59 13 -124v-19l-168 -35l229 -332l211 332l-154 35q0 72 13 143 q33 0 122 -2t142 -2q190 0 254 4q11 -61 10 -123v-20q-74 -31 -151 -39l-332 -492l362 -520q78 -8 156 -39v-19q0 -65 -12 -124q-84 4 -336 4q-74 0 -186.5 -2t-153.5 -2q-16 63 -17 143l181 35l-240 344z" />
<glyph unicode="Y" horiz-adv-x="1380" d="M1217 1192l-375 -688v-154q0 -98 8 -170q121 -8 231 -39q1 -15 1 -28q0 -63 -15 -115q-96 4 -379 4q-82 0 -209 -2t-174 -2q-20 59 -20 143q106 8 243 39q10 49 11 125v203l-369 680q-92 31 -164 39q0 82 17 147q43 0 155.5 -2t186.5 -2q242 0 325 4q13 -59 13 -124 q0 -9 -1 -19l-172 -35l234 -432l221 432l-184 35q0 72 12 143q33 0 125 -2t154 -2q201 0 266 4q11 -61 10 -123v-20q-73 -31 -151 -39z" />
<glyph unicode="Z" horiz-adv-x="1208" d="M623 2h-551q-32 79 -32 155q0 13 1 25l670 992h-392q-25 -137 -30 -226q-49 -10 -95 -10t-88 10q-28 136 -27 328q0 36 1 74l24 24q127 -4 482 -4h452q61 -82 74 -180l-672 -991h459q39 106 74 252q27 4 55 3q60 0 123 -18q0 -178 -23 -413l-24 -25q-127 4 -481 4z" />
<glyph unicode="[" horiz-adv-x="765" d="M209 1718l24 25q352 -6 533 -6q16 -92 0 -185q-117 -16 -289 -20v-1749q172 -4 289 -21q12 -92 0 -184q-168 0 -533 -6l-24 25v2121z" />
<glyph unicode="\" horiz-adv-x="909" d="M680 -211l-633 1565q88 68 219 88l635 -1571q-96 -64 -221 -82z" />
<glyph unicode="]" horiz-adv-x="765" d="M532 1743l25 -25v-2121l-25 -25q-365 6 -532 6q-12 92 0 184q117 16 289 21v1749q-172 4 -289 20q-16 92 0 185q180 0 532 6z" />
<glyph unicode="^" horiz-adv-x="1040" d="M782 762l-268 344l-268 -344q-92 31 -133 112l325 496q82 14 154 14l336 -512q-54 -77 -146 -110z" />
<glyph unicode="_" horiz-adv-x="1024" d="M0 -266v180h1024v-180h-1024z" />
<glyph unicode="`" horiz-adv-x="849" d="M457 1094l-353 374l15 50q109 63 264 59l203 -385q-35 -84 -129 -98z" />
<glyph unicode="a" horiz-adv-x="1095" d="M59 229q0 78 52.5 147.5t140.5 119t177 83t187 58.5q-6 205 -124 205q-72 0 -123 -8q-16 -55 -17 -154q-65 -31 -125 -31q-28 0 -55 6q-68 96 -68 246q201 117 451 117q45 0 88 -7t94 -28.5t88 -56.5t62.5 -97.5t25.5 -144.5v-358q0 -51 5 -142q57 4 131 23 q41 -31 41 -88q-59 -63 -140.5 -105.5t-158.5 -42.5q-82 0 -138 127q-164 -127 -303 -127q-291 0 -291 258zM485 182q49 0 133 51v218q-188 -23 -219 -48q-39 -29 -39 -102q0 -49 33 -84t92 -35z" />
<glyph unicode="b" horiz-adv-x="1169" d="M457 954v-28q133 88 278 88q168 0 270.5 -136.5t102.5 -365.5q0 -203 -129 -372t-320 -169q-170 0 -311 97q-100 -82 -174 -109q-68 18 -90 82q78 109 78 244v1050q-92 25 -162 33q-13 41 -13 80q0 23 5 45q199 70 448 76l25 -25q-8 -273 -8 -590zM610 807 q-55 0 -153 -47v-514q90 -76 186 -76q27 0 52.5 11.5t33.5 23.5q78 102 78 254q0 143 -52.5 245.5t-144.5 102.5z" />
<glyph unicode="c" horiz-adv-x="968" d="M549 815q-92 0 -117 -31q-70 -88 -70 -249q0 -133 59.5 -240t188.5 -107q104 0 271 70q45 -41 53 -127q-80 -66 -194.5 -113t-221.5 -47q-229 0 -343 140.5t-114 367.5q0 203 137.5 369t356.5 166q193 0 356 -78q-8 -215 -59 -322q-47 -13 -88 -12q-52 0 -92 21 q-4 121 -13 182q-40 10 -110 10z" />
<glyph unicode="d" horiz-adv-x="1191" d="M61 473q0 225 134.5 383t308.5 158q102 0 203 -39v360q-98 25 -175 33q-13 41 -12 80q0 23 4 45q205 70 461 76l25 -25q-8 -272 -9 -590v-628q0 -51 5 -142q57 4 131 23q41 -31 41 -88q-59 -63 -140.5 -105.5t-158.5 -42.5q-45 0 -84 44t-64 116q-150 -160 -305 -160 q-176 0 -270.5 141.5t-94.5 360.5zM518.5 188q69.5 0 188.5 119v484q-84 25 -156 24q-92 0 -113 -27q-31 -37 -53.5 -111.5t-22.5 -148.5q0 -139 43.5 -239.5t113 -100.5z" />
<glyph unicode="e" horiz-adv-x="1011" d="M61 467q0 209 141.5 381t346.5 172q111 0 192.5 -39t122.5 -103.5t60.5 -131t19.5 -136t-18 -112.5l-25 -25q-287 4 -467 4h-76q14 -121 76 -205t180 -84q109 0 277 70q45 -41 53 -127q-82 -66 -197.5 -113t-222.5 -47q-231 0 -347 137.5t-116 358.5zM432 799 q-51 -80 -70 -170h46q168 0 241 6q0 195 -139 194q-58 1 -78 -30z" />
<glyph unicode="f" horiz-adv-x="821" d="M78 831q-15 44 -15 88q0 24 5 48q66 20 155 30v13q0 248 137.5 403.5t335.5 155.5q164 0 320 -78q-6 -209 -60 -322q-48 -13 -89 -12q-52 0 -91 21q0 86 -10 182q-45 10 -84 10q-82 0 -102 -33q-61 -96 -62 -344l248 -2q1 -26 1 -50q0 -73 -9 -136h-240v-479 q0 -80 6 -154q139 -8 242 -37q0 -98 -12 -137q-225 4 -377 4q-80 0 -178.5 -2t-132.5 -2q-14 43 -15 137q92 10 164 35q8 59 8 115v520q-22 6 -145 26z" />
<glyph unicode="g" horiz-adv-x="1089" d="M954 680q0 -158 -121.5 -274.5t-347.5 -118.5q-16 -33 -16 -68q0 -31 8 -39q10 -12 213 -12q145 0 242.5 -80t97.5 -215q0 -205 -153.5 -315.5t-436.5 -110.5q-119 0 -203.5 27.5t-127.5 72.5t-61.5 90.5t-18.5 90.5q0 160 204 276q-23 27 -22 82q0 92 121 217 q-244 63 -244 318q0 154 122 273.5t337 119.5q119 0 209 -37q84 98 237 182q84 -51 109 -180q-84 -43 -223 -86q75 -88 75 -213zM539 -63q-125 0 -189 14q-55 -66 -55 -148q0 -68 53 -112.5t160 -44.5q156 0 223 43q14 8 27.5 49t13.5 82q0 117 -233 117zM676 645 q0 72 -46 129t-120 57q-70 0 -94 -20q-51 -43 -51 -139q0 -86 44 -144.5t111 -58.5q72 0 98 23q20 16 39 62t19 91z" />
<glyph unicode="h" horiz-adv-x="1282" d="M805 285v297q0 115 -33 173t-129 58q-72 0 -158 -27v-460q0 -80 7 -154q84 -10 137 -37q0 -98 -13 -137q-102 4 -272 4q-80 0 -180.5 -2t-130.5 -2q-14 43 -15 137q92 10 164 35q8 59 8 115v1050q-92 25 -161 33q-13 41 -13 80q0 23 4 45q199 70 449 76l25 -25 q-8 -272 -9 -594q143 70 293 70q129 0 225.5 -82t96.5 -238v-374q0 -80 6 -154q96 -10 154 -37q0 -100 -15 -137q-106 4 -287 4q-66 0 -146.5 -2t-106.5 -2q-10 41 -11 137q61 14 103 35q8 60 8 115z" />
<glyph unicode="i" horiz-adv-x="724" d="M526 406v-80q0 -80 6 -154q94 -10 154 -37q0 -98 -12 -137q-111 4 -289 4q-80 0 -180.5 -2t-130.5 -2q-14 43 -15 137q92 10 164 35q8 59 8 115v501q-92 25 -161 33q-13 41 -13 80q0 23 4 45q199 70 449 76l25 -25q-9 -272 -9 -589zM348 1139q-59 0 -111.5 44t-52.5 103 q0 74 57.5 144.5t133.5 70.5q63 0 114.5 -42t51.5 -107q0 -78 -57.5 -145.5t-135.5 -67.5z" />
<glyph unicode="j" horiz-adv-x="657" d="M496 379v-352q0 -129 -41 -232.5t-112 -169t-144.5 -105.5t-159.5 -65q-57 33 -57 105q219 158 219 495v731q-92 25 -162 33q-13 41 -13 80q0 23 5 45q199 70 448 76l25 -25q-8 -516 -8 -616zM317 1139q-59 0 -111 44t-52 103q0 74 57 144.5t133 70.5q63 0 114.5 -42 t51.5 -107q0 -78 -57.5 -145.5t-135.5 -67.5z" />
<glyph unicode="k" horiz-adv-x="1290" d="M485 954v-356l162 45l168 176l-151 37q0 84 16 137q29 0 142.5 -2t199.5 -2q82 0 201 4q12 -43 12 -137q-104 -33 -174 -41l-219 -240q121 -219 221 -335q39 -45 67.5 -62.5t73.5 -17.5q31 0 62 6q25 -44 25 -90q0 -14 -3 -29q-41 -25 -135 -48.5t-184 -23.5 q-49 0 -98.5 41t-96.5 120t-82 154t-80 183l-127 -31v-116q0 -80 7 -154q94 -10 153 -37q0 -98 -12 -137q-111 4 -289 4q-80 0 -180.5 -2t-130.5 -2q-14 43 -15 137q92 10 164 35q8 59 8 115v1050q-92 25 -161 33q-13 41 -13 80q0 23 4 45q199 70 449 76l25 -25 q-9 -273 -9 -590z" />
<glyph unicode="l" horiz-adv-x="675" d="M485 954v-628q0 -80 7 -154q94 -10 153 -37q0 -98 -12 -137q-111 4 -295 4q-76 0 -175.5 -2t-129.5 -2q-14 43 -15 137q92 10 164 35q8 59 8 115v1050q-92 25 -161 33q-13 41 -13 80q0 23 4 45q199 70 449 76l25 -25q-9 -273 -9 -590z" />
<glyph unicode="m" horiz-adv-x="1863" d="M809 285v297q0 115 -26.5 173t-102.5 58t-154 -41v-446q0 -80 6 -154q59 -14 101 -37q0 -92 -10 -137q-90 4 -238 4q-80 0 -180.5 -2t-130.5 -2q-14 43 -15 137q92 10 164 35q8 59 8 115v501q-74 23 -161 33q-14 39 -14 77q0 24 5 48q174 61 377 74l33 -17q18 -45 31 -88 q141 106 286 107q178 0 265 -129q154 129 313 129q133 0 224 -82t91 -238v-374q0 -80 7 -154q96 -10 153 -37q0 -100 -14 -137q-106 4 -287 4q-66 0 -146.5 -2t-107.5 -2q-10 41 -10 137q61 14 102 35q8 59 8 115v297q0 115 -26.5 173t-102 58t-159.5 -45q6 -31 6 -68v-374 q0 -80 6 -154q61 -14 100 -37q0 -98 -12 -137q-86 4 -235 4q-66 0 -147 -2t-107 -2q-10 41 -11 137q61 14 103 35q8 60 8 115z" />
<glyph unicode="n" horiz-adv-x="1323" d="M438 1018l33 -17q12 -27 35 -98q145 117 313 117q129 0 225.5 -82t96.5 -238v-374q0 -80 6 -154q96 -10 153 -37q0 -100 -14 -137q-106 4 -287 4q-66 0 -146.5 -2t-107.5 -2q-10 41 -10 137q61 14 103 35q8 59 8 115v297q0 115 -33 173t-129 58q-66 0 -158 -51v-436 q0 -80 6 -154q80 -10 138 -37q0 -98 -13 -137q-102 4 -272 4q-80 0 -180.5 -2t-130.5 -2q-14 43 -15 137q92 10 164 35q8 59 8 115v501q-74 23 -161 33q-14 41 -14 79q0 24 5 46q174 62 377 74z" />
<glyph unicode="o" horiz-adv-x="1112" d="M569 1020q238 0 360 -140.5t122 -367.5q0 -207 -140.5 -374t-367.5 -167q-236 0 -359 139.5t-123 368.5q0 207 140.5 374t367.5 167zM573 170q80 0 103 31q74 94 74 260q0 84 -19.5 161.5t-69 138t-122.5 60.5q-80 0 -103 -30q-74 -94 -74 -261q0 -84 19.5 -161.5 t68.5 -138t123 -60.5z" />
<glyph unicode="p" horiz-adv-x="1208" d="M440 1001q18 -45 31 -88q145 106 303 107q168 0 270.5 -136t102.5 -366q0 -203 -129 -372t-320 -169q-104 0 -202 52v-217q0 -80 6 -154q135 -6 241 -37q0 -96 -12 -135q-225 4 -377 4q-80 0 -178 -2t-133 -2q-14 43 -14 135q92 10 164 35q8 59 8 115v1015 q-74 23 -162 33q-14 41 -14 79q0 24 6 46q174 61 377 74zM649 813q-55 0 -153 -47v-514q90 -76 186 -76q27 0 52.5 11.5t33.5 23.5q78 102 78 254q0 143 -52.5 245.5t-144.5 102.5z" />
<glyph unicode="q" horiz-adv-x="1163" d="M707 -229v274q-154 -68 -281 -68q-176 0 -270.5 141.5t-94.5 360.5q0 225 134.5 383t308.5 158q168 0 311 -94q119 86 180 106q63 -20 84 -80q-78 -109 -78 -286v-854q0 -80 7 -154q94 -10 153 -37q0 -96 -12 -135q-139 4 -289 4q-76 0 -198.5 -2t-169.5 -2 q-14 43 -15 135q131 10 221 35q9 60 9 115zM541 195q66 0 166 22v578q-84 25 -156 24q-92 0 -113 -26q-31 -37 -53.5 -111t-22.5 -147q0 -141 47.5 -240.5t131.5 -99.5z" />
<glyph unicode="r" horiz-adv-x="1019" d="M440 1018l33 -17q29 -70 53 -163q123 176 289 176q104 0 191 -33q0 -252 -41 -389q-48 -18 -95 -18.5t-92 18.5q-14 133 -30 201q-12 2 -35 2q-94 0 -185 -150v-319q0 -80 7 -154q150 -10 241 -37q0 -94 -16 -137q-143 4 -373 4q-80 0 -180.5 -2t-130.5 -2 q-14 43 -15 137q92 10 164 35q8 59 8 115v501q-74 23 -161 33q-16 39 -16 76q0 25 7 49q174 62 377 74z" />
<glyph unicode="s" horiz-adv-x="919" d="M428 -23q-229 0 -371 60q0 164 41 313q41 12 85 12t91 -12q2 -72 19 -176q49 -23 141 -22q84 0 110.5 22.5t26.5 73.5q0 45 -36.5 72.5t-112.5 56.5q-82 29 -125 48t-98.5 56t-80 89.5t-24.5 121.5q0 164 119 243t279 79q223 0 360 -39q0 -152 -41 -293q-44 -11 -85 -11 q-47 0 -89 15q-12 92 -35 152q-35 14 -88 14q-49 0 -81 -7t-43 -22.5t-14 -26t-3 -28.5q0 -43 50 -77t122.5 -61.5t145.5 -62.5t123 -98t50 -152q0 -168 -119.5 -254t-316.5 -86z" />
<glyph unicode="t" horiz-adv-x="831" d="M182 266v539q-27 6 -147 26q-15 44 -15 88q0 24 5 48q66 23 161 32l115 281q21 1 42 1q69 0 134 -15v-273l326 -2q1 -26 1 -50q0 -73 -9 -136h-318v-418q0 -209 94.5 -209t198.5 39q47 -51 45 -131q-154 -115 -375 -115q-258 0 -258 295z" />
<glyph unicode="u" horiz-adv-x="1273" d="M182 307v504q-74 33 -159 45q0 86 14 137q31 0 132 -2t185 -2h103l24 -24q-4 -184 -4 -535q0 -242 121 -242q72 0 182 103v520q-72 33 -149 45q0 86 14 137q31 0 129 -2t180 -2h101l24 -24q-4 -154 -4 -512v-127q0 -51 4 -142q57 4 131 23q41 -31 41 -88 q-59 -63 -140 -105.5t-159 -42.5q-43 0 -80.5 41t-62.5 107q-143 -147 -317 -148q-143 0 -226.5 87t-83.5 249z" />
<glyph unicode="v" horiz-adv-x="1200" d="M1053 821l-297 -796q-135 -35 -293 -35l-309 831q-47 23 -138 35q0 80 15 137q27 0 102.5 -2t124.5 -2q16 0 123.5 2t206.5 2q12 -43 12 -96q0 -20 -2 -41l-121 -37l137 -409v-185h9l194 594l-133 37q0 88 18 137q37 0 131.5 -2t157.5 -2q49 0 180 4q14 -49 14 -101 q0 -18 -1 -36q-51 -25 -131 -35z" />
<glyph unicode="w" horiz-adv-x="1763" d="M1389 819l-136 37q0 88 19 137q37 0 128 -2t154 -2q61 0 181 4q14 -49 13 -101q0 -18 -1 -36q-51 -25 -131 -35l-248 -796q-133 -35 -321 -35l-125 592v184h-11l-168 -741q-133 -35 -319 -35l-277 831q-47 23 -131 35q0 80 15 137q25 0 98.5 -2t120.5 -2q35 0 140.5 2 t184.5 2q12 -43 12 -96q0 -20 -1 -41l-131 -37l108 -409v-185h8l168 742q135 35 363 34l125 -591v-185h8z" />
<glyph unicode="x" horiz-adv-x="1222" d="M528 819l156 -190l131 190l-92 37q0 84 16 137q27 0 113 -2t158 -2q66 0 168 4q14 -49 13 -101q0 -18 -1 -36q-51 -25 -131 -35l-258 -334l264 -317q86 -10 137 -35q2 -18 2 -35q0 -53 -14 -102q-119 4 -195 4q-98 0 -211.5 -2t-138.5 -2q-18 49 -18 137l92 37l-174 209 l-146 -209l115 -37q1 -20 1 -37q0 -62 -11 -100q-55 0 -111.5 1t-87.5 2t-49 1q-43 0 -123 -2t-102 -2q-14 57 -15 137q90 12 138 35l270 358l-240 293q-45 20 -143 35q0 80 14 137q27 0 102.5 -2t127.5 -2q27 0 63.5 1t105 2t144.5 1q12 -43 12 -96q0 -20 -2 -41z" />
<glyph unicode="y" horiz-adv-x="1200" d="M461 0l-307 821q-47 23 -138 35q0 80 15 137q27 0 102.5 -2t124.5 -2q16 0 123.5 2t206.5 2q12 -43 12 -96q0 -20 -2 -41l-121 -37l137 -409v-185h9l194 594l-133 37q0 88 18 137q37 0 131.5 -2t157.5 -2q49 0 180 4q14 -49 14 -101q0 -18 -1 -36q-51 -25 -131 -35 l-289 -803q-94 -262 -193.5 -404t-232.5 -142q-164 0 -254 45q-2 16 -2 30q0 70 47 127h31q281 0 362 242l29 84h-90z" />
<glyph unicode="z" horiz-adv-x="1067" d="M96 969l23 24q121 -4 459 -4h337q55 -90 56 -176l-570 -643h357q33 88 65 223q31 4 62 4q56 0 114 -12q1 -23 1 -49q0 -128 -17 -313l-25 -25q-125 4 -477 4h-375q-43 82 -43 199l545 620h-299q-16 -74 -30 -192q-45 -10 -86.5 -10.5t-79.5 10.5q-17 129 -17 340z" />
<glyph unicode="{" horiz-adv-x="868" d="M616 866q0 -92 -217 -194q217 -82 217 -193v-436q0 -47 12.5 -120t24.5 -89q49 -68 228 -149q27 -96 -64 -156q-217 47 -352 154.5t-135 275.5q0 41 9 183.5t9 199.5q0 70 -12 82q-92 94 -207 149q-20 74 -20 156q160 86 227 148q12 12 12 88q0 61 -9 215.5t-9 193.5 q0 162 136 265.5t353 146.5q63 -49 64 -144q-176 -86 -230 -153q-12 -16 -24.5 -92t-12.5 -123v-408z" />
<glyph unicode="|" horiz-adv-x="632" d="M199 -426v2167h235v-2167h-235z" />
<glyph unicode="}" horiz-adv-x="868" d="M252 449q0 53 55 99t160 95q-96 37 -155.5 87t-59.5 106v436q0 47 -12.5 119.5t-24.5 89.5q-49 68 -227 149q-27 96 63 156q217 -47 352.5 -154.5t135.5 -275.5q0 -41 -9.5 -183.5t-9.5 -199.5q0 -70 12 -82q92 -94 207 -150q20 -74 21 -155q-160 -86 -228 -148 q-12 -12 -12 -88q0 -61 9.5 -215.5t9.5 -193.5q0 -162 -136.5 -265.5t-353.5 -146.5q-63 49 -63 143q176 86 229 154q12 16 24.5 92t12.5 123v408z" />
<glyph unicode="~" horiz-adv-x="1040" d="M707 338q-72 0 -194 57.5t-185 57.5q-86 0 -197 -86q-72 47 -78 127q66 78 153 139t148 61q72 0 194 -57t185 -57q86 0 197 86q72 -47 78 -127q-66 -78 -153 -139.5t-148 -61.5z" />
<glyph unicode="&#xa1;" horiz-adv-x="626" d="M215 600q57 10 102 10q43 0 84 -10q94 -479 95 -778q0 -121 -15 -191q-86 -16 -166 -16q-94 0 -174 16q-10 76 -10 185q0 268 84 784zM479 862q0 -61 -48 -103t-118 -42q-68 0 -114.5 42t-46.5 103q0 63 47 110.5t114 47.5q70 0 118 -47.5t48 -110.5z" />
<glyph unicode="&#xa2;" horiz-adv-x="948" d="M463 -162v160q-205 14 -308.5 152.5t-103.5 353.5q0 180 112.5 334.5t299.5 189.5v154q68 29 153 0v-146q158 -10 299 -75q-8 -215 -59 -322q-100 -29 -166 8q0 106 -10 182l-25 2q-25 4 -39 7v-625q92 2 254 70q45 -41 54 -127q-131 -111 -308 -148v-170q-87 -25 -153 0 zM342 559q0 -217 121 -305v575q-35 -12 -41 -20q-80 -86 -80 -250z" />
<glyph unicode="&#xa3;" horiz-adv-x="995" d="M377 2h-334q-27 92 -20 182q94 8 133 76t47 199h-99q-29 82 0 164h103q16 188 136 315t290 127q115 0 280 -51q0 -207 -41 -334q-78 -8 -165 12q-2 78 -23 170q-27 8 -80 8q-72 0 -88 -26q-29 -47 -37 -221h178q29 -74 0 -164h-186q-20 -152 -154 -240h357q35 88 65 201 q94 10 179 -17q12 -195 -19 -383l-22 -22q-129 4 -500 4z" />
<glyph unicode="&#xa5;" horiz-adv-x="1007" d="M141 647h162l-170 230q-53 23 -100 28q0 70 12 139q33 0 104.5 -2t112.5 -2q154 0 221 4q8 -35 13 -139l-103 -24l152 -226l153 226l-90 24q0 80 8 139q23 0 84.5 -2t98.5 -2q29 0 84 2t80 2q8 -43 8 -139q-57 -20 -123 -28l-158 -230h174q23 -55 0 -135h-233v-88h233 q23 -55 0 -135h-233q0 -72 6 -123q115 -8 205 -31q2 -74 -13 -137q-88 4 -329 4q-70 0 -182.5 -2t-153.5 -2q-16 51 -17 137q80 4 215 31q8 35 9 84v39h-230q-20 68 0 135h230v88h-230q-20 67 0 135z" />
<glyph unicode="&#xa6;" horiz-adv-x="624" d="M195 -426v936h235v-936h-235zM195 805v936h235v-936h-235z" />
<glyph unicode="&#xa7;" horiz-adv-x="991" d="M950 594q0 -182 -200 -338q117 -98 116 -227q0 -160 -128 -242t-287 -82q-193 0 -353 55q2 195 39 316q92 23 162 -8q4 -96 14 -170q61 -25 156 -25q76 0 98 23q35 33 35 90t-57.5 105t-140 85t-165.5 79t-140.5 108.5t-57.5 150.5q0 182 199 338q-115 94 -115 227 q0 160 128 242t288 82q193 0 352 -55q-2 -195 -39 -316q-92 -23 -162 8q-4 96 -14 170q-61 25 -156 25q-76 0 -98 -23q-35 -33 -35 -90t57.5 -105t140.5 -85t166 -79t140 -108.5t57 -150.5zM690 524q0 31 -16.5 57.5t-53 52t-68.5 43t-90.5 45.5t-88.5 44q-72 -96 -72 -182 q0 -31 16.5 -58.5t54.5 -53.5t67.5 -42t89.5 -46l89 -44q72 96 72 184z" />
<glyph unicode="&#xa8;" horiz-adv-x="849" d="M195 1133q-57 0 -101.5 38.5t-44.5 92.5q0 72 49 132t123 60q55 0 100.5 -40t45.5 -95q0 -72 -50 -129t-122 -59zM627 1133q-53 0 -99.5 38.5t-46.5 92.5q0 70 51.5 131t120.5 61q57 0 101.5 -40t44.5 -95q0 -74 -49 -130t-123 -58z" />
<glyph unicode="&#xa9;" horiz-adv-x="1525" d="M846 877q-27 8 -96 8q-61 0 -78 -11q-10 -6 -22.5 -24.5t-26 -60t-13.5 -93.5q0 -115 47.5 -179t128.5 -64q47 0 78 10q6 74 15 125q70 23 151 12q18 -98 19 -274q-119 -51 -277 -52q-199 0 -305.5 107.5t-106.5 273.5q0 156 116 282t319 126q147 0 235 -41 q0 -178 -26 -268q-74 -12 -146 12q0 11 -12 111zM51 661.5q0 296.5 207 504.5t504 208t505 -208t208 -504.5t-208 -504.5t-505 -208t-504 208t-207 504.5zM227 662q0 -227 155 -388t380 -161q227 0 381.5 159.5t154.5 389.5q0 227 -155.5 387.5t-380.5 160.5t-380 -159.5 t-155 -388.5z" />
<glyph unicode="&#xaa;" horiz-adv-x="796" d="M84 799q0 86 114.5 151.5t262.5 102.5q-6 100 -67.5 100t-86.5 -4q-12 -27 -12 -66q-63 -35 -135 -28q-45 51 -51 149q147 80 344 80q41 0 80.5 -8t84 -28.5t71 -64.5t26.5 -106v-278q49 6 90 14q33 -23 33 -63q-104 -109 -232 -109q-66 0 -108 66q-113 -70 -234 -70 q-180 0 -180 162zM395 791q31 0 68 18v109q-102 -6 -111 -15q-23 -14 -22 -57q0 -23 18 -39t47 -16z" />
<glyph unicode="&#xab;" horiz-adv-x="1269" d="M647 899l-258 -377l268 -368q-41 -80 -135 -115l-436 414q-6 66 14 133l428 409q74 -26 119 -96zM1178 899l-258 -377l268 -368q-41 -80 -135 -115l-437 414q-6 66 15 133l428 409q74 -26 119 -96z" />
<glyph unicode="&#xac;" d="M995 643v-643q-106 -31 -200 0v442h-703q-37 100 0 201h903z" />
<glyph unicode="&#xad;" horiz-adv-x="782" d="M649 418l-518 -8q-18 100 4 206l510 11q24 -109 4 -209z" />
<glyph unicode="&#xae;" horiz-adv-x="1089" d="M174 1090q0 -156 107.5 -263.5t263.5 -107.5q154 0 262 107.5t108 263.5q0 154 -108.5 262t-261.5 108q-156 0 -263.5 -108t-107.5 -262zM16 1089.5q0 215.5 156 366t373 150.5t372.5 -151.5t155.5 -364.5q0 -215 -155.5 -366t-372.5 -151t-373 150.5t-156 366zM326 1356 l274 2q76 0 117 -42t41 -102q0 -82 -96 -137q16 -35 28 -55.5t33.5 -39.5t46.5 -19q14 0 35 4q23 -35 22 -76q-57 -35 -149 -35q-35 0 -75 60.5t-58 125.5l-35 5v-78l37 -19q6 -49 -4 -82h-215q-14 31 -11 80l64 17v284l-64 17q-3 57 9 90zM547 1247h-35v-104h20q70 0 70 55 q0 20 -15 34.5t-40 14.5z" />
<glyph unicode="&#xaf;" horiz-adv-x="849" d="M125 1352h598q41 -102 0 -207h-598q-41 109 0 207z" />
<glyph unicode="&#xb0;" horiz-adv-x="745" d="M68 1065q0 127 89 216t216 89t216 -89t89 -216t-89 -216t-216 -89t-216 89t-89 216zM219 1064.5q0 -65.5 45 -111.5t108.5 -46t108.5 46t45 111.5t-45 112t-108.5 46.5t-108.5 -46.5t-45 -112z" />
<glyph unicode="&#xb1;" d="M651 1061v-283h305q35 -100 0 -200h-305v-279q-96 -39 -200 0v279h-297q-39 96 0 200h297v283q100 35 200 0zM956 0h-802q-39 96 0 201h802q35 -101 0 -201z" />
<glyph unicode="&#xb2;" horiz-adv-x="798" d="M414 1626q125 0 203.5 -70.5t78.5 -152.5q0 -92 -73.5 -176t-194.5 -142l-117 -55h379q23 -78 0 -164l-20 -20q-102 4 -385 4h-172q-31 74 -31 192q354 199 354 308q0 45 -19.5 74.5t-54.5 29.5q-23 0 -47 -4q-23 -61 -30 -160q-63 -14 -142 0q-39 102 -41 266 q152 70 312 70z" />
<glyph unicode="&#xb3;" horiz-adv-x="802" d="M692 1440q0 -104 -121 -156q158 -45 158 -194q0 -98 -101.5 -178.5t-260.5 -80.5q-154 0 -283 39q0 164 27 273q61 12 129 6q14 -88 34 -141q23 -6 72 -7q78 0 103 17q29 18 28 57q0 37 -33.5 59.5t-81.5 22.5q-27 0 -40 -2l-21 21q-4 78 29 149q57 0 83.5 19.5 t26.5 46.5q0 29 -24.5 46t-63.5 17q-35 0 -67 -4q-25 -47 -29 -121q-66 -14 -135 0q-41 86 -41 227q147 70 319 70q121 0 207 -53t86 -133z" />
<glyph unicode="&#xb4;" horiz-adv-x="849" d="M283 1176l194 342q125 27 293 26l23 -59l-402 -398q-79 7 -108 89z" />
<glyph unicode="&#xb5;" horiz-adv-x="1357" d="M954 250l-10 2q-117 -281 -313 -281q-90 0 -143.5 50.5t-81.5 160.5h-7q23 -383 60 -686q-164 -41 -330 0q16 412 16 828q0 340 -41 663q166 41 330 0v-424q0 -154 48 -271.5t118 -117.5q66 0 112 129t46 324v360q164 41 329 0l-12 -82l12 49q-25 -180 -23.5 -340.5 t8.5 -212t28 -163.5q106 6 192 32q66 -47 54 -161q-147 -137 -283 -138q-49 0 -83 87.5t-26 191.5z" />
<glyph unicode="&#xb6;" horiz-adv-x="1193" d="M629 -172q23 16 44 100t21 215v236q-88 -16 -184 -17q-82 0 -167 32t-159.5 90.5t-122 153.5t-47.5 210q0 223 182.5 375.5t430.5 152.5q43 0 137 -3t151 -3q184 0 244 4q16 -66 12 -143q-82 -31 -165 -39q-8 -98 -9 -272v-742q0 -182 -93 -329.5t-229 -222.5t-280 -75 q-193 0 -289 70q2 135 101 252l37 12q92 -96 215 -96q115 0 170 39zM459 920q0 -143 68.5 -242.5t162.5 -99.5h4v622h-49q-80 0 -123 -33q-23 -18 -43 -84.5t-20 -162.5z" />
<glyph unicode="&#xb7;" horiz-adv-x="614" d="M287 309q-59 0 -111.5 44t-52.5 104q0 74 57.5 144.5t132.5 70.5q63 0 114.5 -42t51.5 -108q0 -78 -57 -145.5t-135 -67.5z" />
<glyph unicode="&#xb8;" horiz-adv-x="849" d="M492 41l-48 -123q102 -2 161 -45t59 -117q0 -119 -116 -213t-280 -125q-51 55 -43 125q188 74 189 166q0 37 -30 61.5t-85 20.5l-25 25l101 225h117z" />
<glyph unicode="&#xb9;" horiz-adv-x="696" d="M225 985q6 39 6 82v391h-133q-20 47 -14 111q184 57 379 61l20 -22v-516q0 -37 4 -107q74 -6 136 -24q0 -66 -11 -115q-43 4 -260 4q-74 0 -153.5 -2t-106.5 -2q-10 49 -10 117q63 2 143 22z" />
<glyph unicode="&#xba;" horiz-adv-x="776" d="M440 1284q168 0 255 -86t87 -227q0 -125 -99 -227.5t-263 -102.5q-168 0 -256 85t-88 226q0 127 100 229.5t264 102.5zM436 788q41 0 56 17q37 51 36 139q0 72 -27.5 131.5t-78.5 59.5q-41 0 -51 -17q-39 -59 -39 -139q0 -72 26.5 -131.5t77.5 -59.5z" />
<glyph unicode="&#xbb;" horiz-adv-x="1269" d="M92 133l258 377l-268 369q41 80 135 114l436 -413q6 -66 -14 -134l-428 -409q-74 26 -119 96zM623 133l258 377l-269 369q41 80 136 114l436 -413q6 -66 -15 -134l-428 -409q-73 26 -118 96z" />
<glyph unicode="&#xbc;" horiz-adv-x="1884" d="M276 797q6 39 7 82v391h-133q-20 47 -15 110q184 57 379 62l21 -23v-516q0 -37 4 -106q74 -6 135 -25q0 -66 -10 -115q-43 4 -261 5q-74 0 -153.5 -2.5t-106.5 -2.5q-10 49 -10 117q63 3 143 23zM436 59l858 1360q86 -23 138 -94l-859 -1354q-94 31 -137 88zM1491 35 l-21 20v183h-288q-43 59 -37 147l334 436q125 0 233 -43v-397l129 -10q6 -70 -8 -133h-121v-175q-94 -28 -221 -28zM1470 592l-155 -215h155v215z" />
<glyph unicode="&#xbd;" horiz-adv-x="1884" d="M276 797q6 39 7 82v391h-133q-20 47 -15 110q184 57 379 62l21 -23v-516q0 -37 4 -106q74 -6 135 -25q0 -66 -10 -115q-43 4 -261 5q-74 0 -153.5 -2.5t-106.5 -2.5q-10 49 -10 117q63 3 143 23zM436 59l858 1360q86 -23 138 -94l-859 -1354q-94 31 -137 88zM1499 827 q125 0 204 -70.5t79 -152.5q0 -92 -74 -176t-195 -141l-116 -56h379q23 -78 0 -163l-21 -21q-102 4 -385 4h-172q-31 74 -31 193q354 199 355 307q0 45 -19.5 74.5t-54.5 29.5q-23 0 -47 -4q-23 -61 -31 -159q-63 -14 -141 0q-39 102 -41 266q151 69 311 69z" />
<glyph unicode="&#xbe;" horiz-adv-x="1884" d="M690 1251q0 -104 -121 -155q158 -45 158 -195q0 -98 -101.5 -178t-260.5 -80q-154 0 -283 39q0 164 27 272q61 12 129 7q14 -88 34 -142q23 -6 72 -6q78 0 102 16q29 18 29 58q0 37 -33.5 59.5t-81.5 22.5q-27 0 -41 -2l-20 20q-4 78 29 150q57 0 83.5 19.5t26.5 45.5 q0 29 -24.5 46.5t-63.5 17.5q-35 0 -67 -4q-25 -47 -29 -121q-66 -14 -135 0q-41 86 -41 227q147 70 319 70q121 0 207 -53.5t86 -133.5zM436 59l858 1360q86 -23 138 -94l-859 -1354q-94 31 -137 88zM1491 35l-21 20v183h-288q-43 59 -37 147l334 436q125 0 233 -43v-397 l129 -10q6 -70 -8 -133h-121v-175q-94 -28 -221 -28zM1470 592l-155 -215h155v215z" />
<glyph unicode="&#xbf;" horiz-adv-x="880" d="M612 8q94 27 179 10q35 -147 34 -331q-57 -39 -168.5 -69t-220.5 -30q-209 0 -315.5 98.5t-106.5 258.5q0 90 44 166.5t98 118.5l115 91q62 48 83 78q25 33 25 176q92 49 242 27q35 -104 34 -194q0 -41 -51 -89.5t-112.5 -87t-112.5 -97t-51 -116.5q0 -90 55 -159.5 t137 -69.5q29 0 60 6q24 104 32 213zM659 862q0 -61 -48 -103t-117 -42q-68 0 -115 42t-47 103q0 63 47 110.5t115 47.5q70 0 117.5 -47.5t47.5 -110.5z" />
<glyph unicode="&#xc0;" horiz-adv-x="1468" d="M987 176l-78 215q-174 10 -305 10h-137l-78 -225l182 -35q2 -76 -12 -143q-84 4 -287 4q-55 0 -136 -2t-109 -2q-16 63 -17 143q72 8 164 39l420 1168q123 35 276 34l439 -1202q78 -8 151 -39q2 -76 -12 -143q-76 4 -307 4q-68 0 -178.5 -2t-153.5 -2q-16 63 -16 143z M713 1116l-187 -541h318l-119 330l-4 211h-8zM537 1909l393 -295q0 -90 -74 -131l-467 194l-12 52q35 123 160 180z" />
<glyph unicode="&#xc1;" horiz-adv-x="1468" d="M987 176l-78 215q-174 10 -305 10h-137l-78 -225l182 -35q2 -76 -12 -143q-84 4 -287 4q-55 0 -136 -2t-109 -2q-16 63 -17 143q72 8 164 39l420 1168q123 35 276 34l439 -1202q78 -8 151 -39q2 -76 -12 -143q-76 4 -307 4q-68 0 -178.5 -2t-153.5 -2q-16 63 -16 143z M713 1116l-187 -541h318l-119 330l-4 211h-8zM541 1610l409 280q123 -63 152 -194l-15 -51l-477 -168q-55 51 -69 133z" />
<glyph unicode="&#xc2;" horiz-adv-x="1468" d="M987 176l-78 215q-174 10 -305 10h-137l-78 -225l182 -35q2 -76 -12 -143q-84 4 -287 4q-55 0 -136 -2t-109 -2q-16 63 -17 143q72 8 164 39l420 1168q123 35 276 34l439 -1202q78 -8 151 -39q2 -76 -12 -143q-76 4 -307 4q-68 0 -178.5 -2t-153.5 -2q-16 63 -16 143z M713 1116l-187 -541h318l-119 330l-4 211h-8zM1014 1462l-277 164l-272 -164q-70 43 -90 115l280 266q72 14 162 15l295 -273q-30 -78 -98 -123z" />
<glyph unicode="&#xc3;" horiz-adv-x="1468" d="M987 176l-78 215q-174 10 -305 10h-137l-78 -225l182 -35q2 -76 -12 -143q-84 4 -287 4q-55 0 -136 -2t-109 -2q-16 63 -17 143q72 8 164 39l420 1168q123 35 276 34l439 -1202q78 -8 151 -39q2 -76 -12 -143q-76 4 -307 4q-68 0 -178.5 -2t-153.5 -2q-16 63 -16 143z M713 1116l-187 -541h318l-119 330l-4 211h-8zM475 1524q-76 27 -96 92q49 90 120.5 145.5t137.5 55.5q51 0 133 -53.5t113 -53.5q51 0 131 84q70 -25 98 -88q-51 -90 -124 -147.5t-140 -57.5q-49 0 -133 53.5t-109 53.5q-51 0 -131 -84z" />
<glyph unicode="&#xc4;" horiz-adv-x="1468" d="M987 176l-78 215q-174 10 -305 10h-137l-78 -225l182 -35q2 -76 -12 -143q-84 4 -287 4q-55 0 -136 -2t-109 -2q-16 63 -17 143q72 8 164 39l420 1168q123 35 276 34l439 -1202q78 -8 151 -39q2 -76 -12 -143q-76 4 -307 4q-68 0 -178.5 -2t-153.5 -2q-16 63 -16 143z M713 1116l-187 -541h318l-119 330l-4 211h-8zM518 1511q-55 0 -99 37t-44 90q0 70 49 129.5t119 59.5q53 0 95 -38t42 -93q0 -70 -47 -126.5t-115 -58.5zM948 1511q-51 0 -95 38t-44 89q0 70 48 129.5t116 59.5q57 0 100 -38t43 -93q0 -72 -48 -127.5t-120 -57.5z" />
<glyph unicode="&#xc5;" horiz-adv-x="1468" d="M987 176l-78 215q-174 10 -305 10h-137l-78 -225l182 -35q2 -76 -12 -143q-84 4 -287 4q-55 0 -136 -2t-109 -2q-16 63 -17 143q72 8 164 39l420 1168q123 35 276 34l439 -1202q78 -8 151 -39q2 -76 -12 -143q-76 4 -307 4q-68 0 -178.5 -2t-153.5 -2q-16 63 -16 143z M713 1116l-187 -541h318l-119 330l-4 211h-8zM748 1602q27 0 59 16q20 20 20 59q0 33 -25.5 59.5t-58.5 26.5q-35 0 -59 -16q-20 -14 -20 -57q0 -33 25.5 -60.5t58.5 -27.5zM733 1450q-242 0 -241 229q0 86 81.5 161t184.5 75q242 0 241 -229q0 -86 -82 -161t-184 -75z" />
<glyph unicode="&#xc6;" horiz-adv-x="1873" d="M387 176l182 -35q2 -76 -12 -143q-84 4 -287 4q-55 0 -136 -2t-109 -2q-16 63 -17 143q70 8 164 39l440 1002l-178 49q0 80 17 143q43 0 129 -2t131 -2h577q354 0 481 4l25 -26q6 -248 -27 -400q-104 -18 -182 0q-10 121 -31 226h-364v-422l364 6l25 -25 q-4 -106 -23 -168l-366 6v-372h391q39 106 74 252q86 12 178 -15q0 -174 -23 -411l-24 -27q-127 4 -481 4h-265q-70 0 -178 -2t-147 -2q-16 63 -17 143q80 8 179 39q10 49 10 125v268h-326zM823 1174l-186 -424h250v424h-64z" />
<glyph unicode="&#xc7;" horiz-adv-x="1228" d="M918 1163q-68 12 -191 13q-160 0 -215 -43q-18 -14 -48 -59.5t-59.5 -137.5t-29.5 -193q0 -246 101.5 -396t301.5 -150q94 0 168 18q16 127 27 248q92 29 182 14q31 -164 31 -428q-205 -74 -434 -80l-21 -51q102 -2 160.5 -45t58.5 -117q0 -119 -115.5 -213t-279.5 -125 q-51 55 -43 125q188 74 188 166q0 37 -29.5 61.5t-84.5 20.5l-25 25l70 159q-188 20 -320.5 117.5t-194 243t-61.5 326.5q0 133 46 263t132 237.5t225.5 174t309.5 66.5q238 0 397 -64q0 -250 -47 -413q-86 -14 -174 14q-3 92 -26 223z" />
<glyph unicode="&#xc8;" horiz-adv-x="1208" d="M371 1370h252q354 0 481 4l24 -26q6 -248 -26 -400q-104 -18 -182 0q-10 121 -31 226h-365v-381l365 12l24 -25q-4 -119 -22 -180l-367 10v-411h391q39 106 74 252q86 12 178 -15q0 -174 -22 -411l-25 -27q-127 4 -481 4h-264q-70 0 -178.5 -2t-147.5 -2q-16 63 -16 143 q80 8 178 39q10 49 10 125v604q0 154 -10 283q-98 31 -178 39q0 80 16 143q39 0 145.5 -2t176.5 -2zM430 1909l393 -295q0 -90 -73 -131l-467 194l-13 52q35 123 160 180z" />
<glyph unicode="&#xc9;" horiz-adv-x="1208" d="M371 1370h252q354 0 481 4l24 -26q6 -248 -26 -400q-104 -18 -182 0q-10 121 -31 226h-365v-381l365 12l24 -25q-4 -119 -22 -180l-367 10v-411h391q39 106 74 252q86 12 178 -15q0 -174 -22 -411l-25 -27q-127 4 -481 4h-264q-70 0 -178.5 -2t-147.5 -2q-16 63 -16 143 q80 8 178 39q10 49 10 125v604q0 154 -10 283q-98 31 -178 39q0 80 16 143q39 0 145.5 -2t176.5 -2zM434 1610l410 280q123 -63 151 -194l-14 -51l-477 -168q-56 51 -70 133z" />
<glyph unicode="&#xca;" horiz-adv-x="1208" d="M371 1370h252q354 0 481 4l24 -26q6 -248 -26 -400q-104 -18 -182 0q-10 121 -31 226h-365v-381l365 12l24 -25q-4 -119 -22 -180l-367 10v-411h391q39 106 74 252q86 12 178 -15q0 -174 -22 -411l-25 -27q-127 4 -481 4h-264q-70 0 -178.5 -2t-147.5 -2q-16 63 -16 143 q80 8 178 39q10 49 10 125v604q0 154 -10 283q-98 31 -178 39q0 80 16 143q39 0 145.5 -2t176.5 -2zM907 1462l-276 164l-273 -164q-70 43 -90 115l281 266q72 14 162 15l295 -273q-31 -78 -99 -123z" />
<glyph unicode="&#xcb;" horiz-adv-x="1208" d="M371 1370h252q354 0 481 4l24 -26q6 -248 -26 -400q-104 -18 -182 0q-10 121 -31 226h-365v-381l365 12l24 -25q-4 -119 -22 -180l-367 10v-411h391q39 106 74 252q86 12 178 -15q0 -174 -22 -411l-25 -27q-127 4 -481 4h-264q-70 0 -178.5 -2t-147.5 -2q-16 63 -16 143 q80 8 178 39q10 49 10 125v604q0 154 -10 283q-98 31 -178 39q0 80 16 143q39 0 145.5 -2t176.5 -2zM412 1511q-55 0 -99.5 37t-44.5 90q0 70 49.5 129.5t118.5 59.5q53 0 95 -38t42 -93q0 -70 -46.5 -126.5t-114.5 -58.5zM842 1511q-51 0 -95.5 38t-44.5 89 q0 70 48.5 129.5t115.5 59.5q57 0 100.5 -38t43.5 -93q0 -72 -48 -127.5t-120 -57.5z" />
<glyph unicode="&#xcc;" horiz-adv-x="741" d="M211 1192q-98 31 -178 39q0 80 16 143q39 0 145.5 -2t176.5 -2q236 0 315 4q14 -68 12 -143q-82 -31 -166 -39q-8 -100 -8 -283v-559q0 -98 8 -170q84 -8 166 -39q2 -76 -12 -143q-80 4 -315 4q-70 0 -176.5 -2t-145.5 -2q-16 63 -16 143q80 8 178 39q10 49 10 125v604 q0 156 -10 283zM164 1909l393 -295q0 -90 -74 -131l-467 194l-12 52q35 123 160 180z" />
<glyph unicode="&#xcd;" horiz-adv-x="741" d="M211 1192q-98 31 -178 39q0 80 16 143q39 0 145.5 -2t176.5 -2q236 0 315 4q14 -68 12 -143q-82 -31 -166 -39q-8 -100 -8 -283v-559q0 -98 8 -170q84 -8 166 -39q2 -76 -12 -143q-80 4 -315 4q-70 0 -176.5 -2t-145.5 -2q-16 63 -16 143q80 8 178 39q10 49 10 125v604 q0 156 -10 283zM168 1610l410 280q123 -63 151 -194l-14 -51l-477 -168q-56 51 -70 133z" />
<glyph unicode="&#xce;" horiz-adv-x="741" d="M211 1192q-98 31 -178 39q0 80 16 143q39 0 145.5 -2t176.5 -2q236 0 315 4q14 -68 12 -143q-82 -31 -166 -39q-8 -100 -8 -283v-559q0 -98 8 -170q84 -8 166 -39q2 -76 -12 -143q-80 4 -315 4q-70 0 -176.5 -2t-145.5 -2q-16 63 -16 143q80 8 178 39q10 49 10 125v604 q0 156 -10 283zM641 1462l-276 164l-273 -164q-70 43 -90 115l281 266q72 14 161 15l295 -273q-30 -78 -98 -123z" />
<glyph unicode="&#xcf;" horiz-adv-x="741" d="M211 1192q-98 31 -178 39q0 80 16 143q39 0 145.5 -2t176.5 -2q236 0 315 4q14 -68 12 -143q-82 -31 -166 -39q-8 -100 -8 -283v-559q0 -98 8 -170q84 -8 166 -39q2 -76 -12 -143q-80 4 -315 4q-70 0 -176.5 -2t-145.5 -2q-16 63 -16 143q80 8 178 39q10 49 10 125v604 q0 156 -10 283zM145 1511q-55 0 -99 37t-44 90q0 70 49 129.5t119 59.5q53 0 95 -38t42 -93q0 -70 -47 -126.5t-115 -58.5zM575 1511q-51 0 -95 38t-44 89q0 70 48 129.5t116 59.5q57 0 100 -38t43 -93q0 -72 -48 -127.5t-120 -57.5z" />
<glyph unicode="&#xd0;" horiz-adv-x="1431" d="M375 2q-70 0 -176.5 -2t-145.5 -2q-16 63 -16 143q80 8 178 39q10 49 10 125v309h-172q-29 86 0 168h172v127q0 156 -10 283q-98 31 -178 39q0 80 16 143q39 0 145.5 -2t176.5 -2q68 0 215 5t217 5q268 0 418.5 -187t150.5 -488q0 -281 -188.5 -497t-470.5 -216 q-47 0 -158.5 5t-183.5 5zM707 614h-179v-419h172q66 0 135.5 15t94.5 36q127 106 127 381q0 141 -38 264t-122 207t-199 84q-59 0 -170 -4v-396h179q27 -84 0 -168z" />
<glyph unicode="&#xd1;" horiz-adv-x="1531" d="M1335 25q-145 -35 -340 -35l-499 884l-47 226h-9v-750q0 -98 9 -170q84 -8 165 -39q2 -76 -12 -143q-80 4 -276 4q-47 0 -140.5 -2t-136.5 -2q-16 63 -16 143q80 8 178 39q10 49 10 125v604q0 156 -10 283q-98 31 -178 39q0 80 16 143q41 0 141.5 -2t155.5 -2 q158 0 227 -8l484 -852l51 -225h8v624q0 156 -10 283q-98 31 -178 39q0 80 16 143q43 0 139.5 -2t143.5 -2q193 0 270 4q14 -68 12 -143q-82 -31 -166 -39q-8 -100 -8 -283v-884zM530 1524q-76 27 -96 92q49 90 121 145.5t137 55.5q51 0 133 -53.5t113 -53.5q51 0 131 84 q70 -25 98 -88q-51 -90 -123.5 -147.5t-140.5 -57.5q-51 0 -133 53.5t-108 53.5q-52 0 -132 -84z" />
<glyph unicode="&#xd2;" horiz-adv-x="1421" d="M690 -37q-301 0 -468 196.5t-167 502.5q0 182 80 351t238.5 282.5t357.5 113.5q299 0 467 -196.5t168 -501.5q0 -182 -80 -351.5t-238.5 -283t-357.5 -113.5zM748 190q55 0 111 19.5t73 40.5q115 135 115 379q0 240 -92.5 396.5t-280.5 156.5q-55 0 -111.5 -19.5 t-73.5 -40.5q-115 -135 -114 -379q0 -240 92.5 -396.5t280.5 -156.5zM506 1909l393 -295q0 -90 -74 -131l-467 194l-12 52q35 123 160 180z" />
<glyph unicode="&#xd3;" horiz-adv-x="1421" d="M690 -37q-301 0 -468 196.5t-167 502.5q0 182 80 351t238.5 282.5t357.5 113.5q299 0 467 -196.5t168 -501.5q0 -182 -80 -351.5t-238.5 -283t-357.5 -113.5zM748 190q55 0 111 19.5t73 40.5q115 135 115 379q0 240 -92.5 396.5t-280.5 156.5q-55 0 -111.5 -19.5 t-73.5 -40.5q-115 -135 -114 -379q0 -240 92.5 -396.5t280.5 -156.5zM510 1610l410 280q123 -63 151 -194l-14 -51l-477 -168q-56 51 -70 133z" />
<glyph unicode="&#xd4;" horiz-adv-x="1421" d="M690 -37q-301 0 -468 196.5t-167 502.5q0 182 80 351t238.5 282.5t357.5 113.5q299 0 467 -196.5t168 -501.5q0 -182 -80 -351.5t-238.5 -283t-357.5 -113.5zM748 190q55 0 111 19.5t73 40.5q115 135 115 379q0 240 -92.5 396.5t-280.5 156.5q-55 0 -111.5 -19.5 t-73.5 -40.5q-115 -135 -114 -379q0 -240 92.5 -396.5t280.5 -156.5zM983 1462l-276 164l-273 -164q-70 43 -90 115l281 266q72 14 161 15l295 -273q-30 -78 -98 -123z" />
<glyph unicode="&#xd5;" horiz-adv-x="1421" d="M690 -37q-301 0 -468 196.5t-167 502.5q0 182 80 351t238.5 282.5t357.5 113.5q299 0 467 -196.5t168 -501.5q0 -182 -80 -351.5t-238.5 -283t-357.5 -113.5zM748 190q55 0 111 19.5t73 40.5q115 135 115 379q0 240 -92.5 396.5t-280.5 156.5q-55 0 -111.5 -19.5 t-73.5 -40.5q-115 -135 -114 -379q0 -240 92.5 -396.5t280.5 -156.5zM444 1524q-76 27 -96 92q49 90 121 145.5t137 55.5q51 0 133 -53.5t113 -53.5q51 0 131 84q70 -25 98 -88q-51 -90 -123.5 -147.5t-140.5 -57.5q-51 0 -133 53.5t-109 53.5q-51 0 -131 -84z" />
<glyph unicode="&#xd6;" horiz-adv-x="1421" d="M690 -37q-301 0 -468 196.5t-167 502.5q0 182 80 351t238.5 282.5t357.5 113.5q299 0 467 -196.5t168 -501.5q0 -182 -80 -351.5t-238.5 -283t-357.5 -113.5zM748 190q55 0 111 19.5t73 40.5q115 135 115 379q0 240 -92.5 396.5t-280.5 156.5q-55 0 -111.5 -19.5 t-73.5 -40.5q-115 -135 -114 -379q0 -240 92.5 -396.5t280.5 -156.5zM487 1511q-55 0 -99 37t-44 90q0 70 49 129.5t119 59.5q53 0 95 -38t42 -93q0 -70 -47 -126.5t-115 -58.5zM918 1511q-51 0 -95.5 38t-44.5 89q0 70 48 129.5t116 59.5q57 0 100 -38t43 -93 q0 -72 -47.5 -127.5t-119.5 -57.5z" />
<glyph unicode="&#xd7;" d="M303 930l248 -250l250 250q80 -51 141 -139l-250 -250l248 -248q-57 -86 -141 -139l-248 245l-246 -245q-78 47 -139 141l246 246l-248 247q55 89 139 142z" />
<glyph unicode="&#xd8;" horiz-adv-x="1421" d="M197 -72l90 168q-231 190 -232 566q0 182 80 351t238.5 282.5t357.5 113.5q137 0 256 -49l92 168q96 -6 150 -74l-94 -180q231 -190 231 -563q0 -182 -80 -351.5t-238.5 -283t-357.5 -113.5q-141 0 -262 49l-92 -168q-92 18 -139 84zM748 190q55 0 111 19.5t73 40.5 q115 135 115 379q0 219 -76 364l-406 -749q77 -54 183 -54zM375 743q0 -223 74 -364l403 751q-78 51 -178 52q-55 0 -111.5 -19.5t-73.5 -40.5q-114 -135 -114 -379z" />
<glyph unicode="&#xd9;" horiz-adv-x="1458" d="M1272 909v-342q0 -272 -137.5 -438t-434.5 -166q-250 0 -377.5 123t-127.5 393v430q0 156 -11 283q-98 31 -178 39q0 80 17 143q39 0 145 -2t176 -2q236 0 315 4q14 -68 13 -143q-82 -31 -166 -39q-8 -100 -8 -283v-331q0 -408 282 -408q61 0 116.5 21.5t76.5 46.5 q70 84 69 274v397q0 156 -10 283q-98 31 -178 39q0 80 16 143q43 0 138.5 -2t146.5 -2q199 0 279 4q14 -68 12 -143q-82 -31 -166 -39q-8 -101 -8 -283zM553 1909l393 -295q0 -90 -74 -131l-466 194l-13 52q35 123 160 180z" />
<glyph unicode="&#xda;" horiz-adv-x="1458" d="M1272 909v-342q0 -272 -137.5 -438t-434.5 -166q-250 0 -377.5 123t-127.5 393v430q0 156 -11 283q-98 31 -178 39q0 80 17 143q39 0 145 -2t176 -2q236 0 315 4q14 -68 13 -143q-82 -31 -166 -39q-8 -100 -8 -283v-331q0 -408 282 -408q61 0 116.5 21.5t76.5 46.5 q70 84 69 274v397q0 156 -10 283q-98 31 -178 39q0 80 16 143q43 0 138.5 -2t146.5 -2q199 0 279 4q14 -68 12 -143q-82 -31 -166 -39q-8 -101 -8 -283zM557 1610l410 280q123 -63 151 -194l-14 -51l-477 -168q-56 51 -70 133z" />
<glyph unicode="&#xdb;" horiz-adv-x="1458" d="M1272 909v-342q0 -272 -137.5 -438t-434.5 -166q-250 0 -377.5 123t-127.5 393v430q0 156 -11 283q-98 31 -178 39q0 80 17 143q39 0 145 -2t176 -2q236 0 315 4q14 -68 13 -143q-82 -31 -166 -39q-8 -100 -8 -283v-331q0 -408 282 -408q61 0 116.5 21.5t76.5 46.5 q70 84 69 274v397q0 156 -10 283q-98 31 -178 39q0 80 16 143q43 0 138.5 -2t146.5 -2q199 0 279 4q14 -68 12 -143q-82 -31 -166 -39q-8 -101 -8 -283zM1030 1462l-276 164l-273 -164q-70 43 -90 115l281 266q72 14 162 15l294 -273q-30 -78 -98 -123z" />
<glyph unicode="&#xdc;" horiz-adv-x="1458" d="M1272 909v-342q0 -272 -137.5 -438t-434.5 -166q-250 0 -377.5 123t-127.5 393v430q0 156 -11 283q-98 31 -178 39q0 80 17 143q39 0 145 -2t176 -2q236 0 315 4q14 -68 13 -143q-82 -31 -166 -39q-8 -100 -8 -283v-331q0 -408 282 -408q61 0 116.5 21.5t76.5 46.5 q70 84 69 274v397q0 156 -10 283q-98 31 -178 39q0 80 16 143q43 0 138.5 -2t146.5 -2q199 0 279 4q14 -68 12 -143q-82 -31 -166 -39q-8 -101 -8 -283zM535 1511q-55 0 -99.5 37t-44.5 90q0 70 49 129.5t119 59.5q53 0 95 -38t42 -93q0 -70 -46.5 -126.5t-114.5 -58.5z M965 1511q-51 0 -95.5 38t-44.5 89q0 70 48.5 129.5t115.5 59.5q57 0 100.5 -38t43.5 -93q0 -72 -48 -127.5t-120 -57.5z" />
<glyph unicode="&#xdd;" horiz-adv-x="1380" d="M1217 1192l-375 -688v-154q0 -98 8 -170q121 -8 231 -39q4 -80 -14 -143q-96 4 -379 4q-82 0 -209 -2t-174 -2q-20 59 -20 143q106 8 243 39q10 49 11 125v203l-369 680q-92 31 -164 39q0 82 17 147q43 0 155.5 -2t186.5 -2q242 0 325 4q14 -68 12 -143l-172 -35 l234 -432l221 432l-184 35q0 72 12 143q33 0 125 -2t154 -2q201 0 266 4q12 -72 10 -143q-73 -31 -151 -39zM543 1610l409 280q123 -63 152 -194l-14 -51l-478 -168q-55 51 -69 133z" />
<glyph unicode="&#xde;" horiz-adv-x="1210" d="M1204 739.5q0 -159.5 -153.5 -309t-335.5 -149.5q-98 0 -191 18v-139q127 -8 240 -39q4 -80 -14 -144q-96 4 -379 5q-70 0 -176.5 -2.5t-145.5 -2.5q-16 63 -16 144q80 8 178 39q10 49 10 125v645q0 156 -10 282q-98 31 -178 39q0 80 16 144q39 0 145.5 -2t176.5 -2 q285 0 381 4q14 -68 12 -144q-104 -29 -240 -41v-125q143 18 283 19q205 0 301 -102.5t96 -262zM694 907q-98 0 -170 -10v-408q70 -4 123 -4q59 0 114.5 13.5t67.5 23.5q72 68 72 166q0 86 -51.5 152.5t-155.5 66.5z" />
<glyph unicode="&#xdf;" horiz-adv-x="1423" d="M535 23l-25 -25q-45 4 -117 4q-76 0 -180 -2t-139 -2q-14 43 -15 137q92 10 164 35q8 59 8 115v520q-23 6 -145 26q-23 68 -10 136q66 20 155 30v13q0 250 140.5 404.5t351.5 154.5q221 0 346 -98.5t125 -274.5q0 -59 -33 -122.5t-71.5 -107.5t-71.5 -98.5t-33 -99.5 q0 -43 43 -77t104.5 -61.5t123 -62.5t104.5 -98t43 -152q0 -168 -116 -254t-304 -86q-221 0 -358 60q0 164 41 313q82 25 176 0q2 -72 18 -176q45 -23 127 -22q74 0 98.5 22.5t24.5 73.5q0 45 -30.5 72.5t-96.5 56.5q-72 31 -104.5 48t-81.5 55t-69.5 89.5t-20.5 122.5 q0 92 55 185.5t110.5 158t55.5 86.5q0 106 -66.5 177t-163.5 71q-90 0 -110 -33q-61 -96 -62 -331v-394q1 -317 9 -589z" />
<glyph unicode="&#xe0;" horiz-adv-x="1095" d="M59 229q0 78 52.5 147.5t140.5 119t177 83t187 58.5q-6 205 -124 205q-72 0 -123 -8q-16 -55 -17 -154q-94 -45 -180 -25q-68 96 -68 246q201 117 451 117q45 0 88 -7t94 -28.5t88 -56.5t62.5 -97.5t25.5 -144.5v-358q0 -51 5 -142q57 4 131 23q41 -31 41 -88 q-59 -63 -140.5 -105.5t-158.5 -42.5q-82 0 -138 127q-164 -127 -303 -127q-291 0 -291 258zM485 182q49 0 133 51v218q-188 -23 -219 -48q-39 -29 -39 -102q0 -49 33 -84t92 -35zM528 1094l-352 374l14 50q109 63 265 59l202 -385q-35 -84 -129 -98z" />
<glyph unicode="&#xe1;" horiz-adv-x="1095" d="M59 229q0 78 52.5 147.5t140.5 119t177 83t187 58.5q-6 205 -124 205q-72 0 -123 -8q-16 -55 -17 -154q-94 -45 -180 -25q-68 96 -68 246q201 117 451 117q45 0 88 -7t94 -28.5t88 -56.5t62.5 -97.5t25.5 -144.5v-358q0 -51 5 -142q57 4 131 23q41 -31 41 -88 q-59 -63 -140.5 -105.5t-158.5 -42.5q-82 0 -138 127q-164 -127 -303 -127q-291 0 -291 258zM485 182q49 0 133 51v218q-188 -23 -219 -48q-39 -29 -39 -102q0 -49 33 -84t92 -35zM354 1176l195 342q125 27 293 26l22 -59l-401 -398q-80 7 -109 89z" />
<glyph unicode="&#xe2;" horiz-adv-x="1095" d="M59 229q0 78 52.5 147.5t140.5 119t177 83t187 58.5q-6 205 -124 205q-72 0 -123 -8q-16 -55 -17 -154q-94 -45 -180 -25q-68 96 -68 246q201 117 451 117q45 0 88 -7t94 -28.5t88 -56.5t62.5 -97.5t25.5 -144.5v-358q0 -51 5 -142q57 4 131 23q41 -31 41 -88 q-59 -63 -140.5 -105.5t-158.5 -42.5q-82 0 -138 127q-164 -127 -303 -127q-291 0 -291 258zM485 182q49 0 133 51v218q-188 -23 -219 -48q-39 -29 -39 -102q0 -49 33 -84t92 -35zM709 1081l-226 205l-213 -205q-74 18 -104 82l225 353q92 20 184 18l242 -363 q-38 -61 -108 -90z" />
<glyph unicode="&#xe3;" horiz-adv-x="1095" d="M59 229q0 78 52.5 147.5t140.5 119t177 83t187 58.5q-6 205 -124 205q-72 0 -123 -8q-16 -55 -17 -154q-94 -45 -180 -25q-68 96 -68 246q201 117 451 117q45 0 88 -7t94 -28.5t88 -56.5t62.5 -97.5t25.5 -144.5v-358q0 -51 5 -142q57 4 131 23q41 -31 41 -88 q-59 -63 -140.5 -105.5t-158.5 -42.5q-82 0 -138 127q-164 -127 -303 -127q-291 0 -291 258zM485 182q49 0 133 51v218q-188 -23 -219 -48q-39 -29 -39 -102q0 -49 33 -84t92 -35zM217 1157q-76 25 -100 94q49 92 123.5 149.5t142.5 57.5q53 0 138 -54t116 -54q53 0 135 86 q70 -23 102 -90q-53 -94 -127.5 -152.5t-144.5 -58.5q-53 0 -138 54t-112 54q-53 0 -135 -86z" />
<glyph unicode="&#xe4;" horiz-adv-x="1095" d="M59 229q0 78 52.5 147.5t140.5 119t177 83t187 58.5q-6 205 -124 205q-72 0 -123 -8q-16 -55 -17 -154q-94 -45 -180 -25q-68 96 -68 246q201 117 451 117q45 0 88 -7t94 -28.5t88 -56.5t62.5 -97.5t25.5 -144.5v-358q0 -51 5 -142q57 4 131 23q41 -31 41 -88 q-59 -63 -140.5 -105.5t-158.5 -42.5q-82 0 -138 127q-164 -127 -303 -127q-291 0 -291 258zM485 182q49 0 133 51v218q-188 -23 -219 -48q-39 -29 -39 -102q0 -49 33 -84t92 -35zM266 1133q-57 0 -101 38.5t-44 92.5q0 72 49 132t123 60q55 0 100 -40t45 -95 q0 -72 -50 -129t-122 -59zM698 1133q-53 0 -99 38.5t-46 92.5q0 70 51 131t121 61q57 0 101 -40t44 -95q0 -74 -49 -130t-123 -58z" />
<glyph unicode="&#xe5;" horiz-adv-x="1095" d="M59 229q0 78 52.5 147.5t140.5 119t177 83t187 58.5q-6 205 -124 205q-72 0 -123 -8q-16 -55 -17 -154q-94 -45 -180 -25q-68 96 -68 246q201 117 451 117q45 0 88 -7t94 -28.5t88 -56.5t62.5 -97.5t25.5 -144.5v-358q0 -51 5 -142q57 4 131 23q41 -31 41 -88 q-59 -63 -140.5 -105.5t-158.5 -42.5q-82 0 -138 127q-164 -127 -303 -127q-291 0 -291 258zM485 182q49 0 133 51v218q-188 -23 -219 -48q-39 -29 -39 -102q0 -49 33 -84t92 -35zM498 1245q33 0 61 15q18 10 19 63q0 35 -25 61.5t-59 26.5q-39 0 -62 -14q-20 -16 -20 -62 q0 -35 25.5 -62.5t60.5 -27.5zM483 1087q-115 0 -178 59.5t-63 178.5q0 90 82 167t184 77q242 0 242 -238q0 -88 -82.5 -166t-184.5 -78z" />
<glyph unicode="&#xe6;" horiz-adv-x="1570" d="M59 229q0 78 52.5 147.5t140.5 119t177 83t187 58.5q-6 205 -124 205q-72 0 -123 -8q-16 -55 -17 -154q-94 -45 -180 -25q-68 96 -68 246q201 117 451 117q68 0 141.5 -30t122.5 -89q135 121 289 121q111 0 192.5 -39t122.5 -103.5t60.5 -131t19.5 -136t-18 -112.5 l-25 -25q-229 4 -375 4h-167q14 -121 75.5 -205t180.5 -84q109 0 276 70q45 -41 53 -127q-82 -66 -197.5 -113t-222.5 -47q-258 0 -376 174q-186 -174 -357 -174q-291 0 -291 258zM651 258q-31 96 -30 193q-186 -23 -222 -48q-39 -33 -39 -102q0 -49 33 -84t92 -35 q64 0 166 76zM1069 829q-53 0 -93 -55t-54 -145h143q45 0 143 6q0 194 -139 194z" />
<glyph unicode="&#xe7;" horiz-adv-x="968" d="M549 815q-92 0 -117 -31q-70 -88 -70 -249q0 -133 59.5 -240t188.5 -107q104 0 271 70q45 -41 53 -127q-152 -125 -348 -154l-23 -59q102 -2 160.5 -45t58.5 -117q0 -119 -115.5 -213t-279.5 -125q-51 55 -43 125q188 74 188 166q0 37 -29.5 61.5t-84.5 20.5l-25 25 l70 159q-201 18 -301.5 154.5t-100.5 349.5q0 203 137.5 369t356.5 166q193 0 356 -78q-8 -215 -59 -322q-109 -29 -180 9q-4 121 -13 182q-40 10 -110 10z" />
<glyph unicode="&#xe8;" horiz-adv-x="1011" d="M61 467q0 209 141.5 381t346.5 172q111 0 192.5 -39t122.5 -103.5t60.5 -131t19.5 -136t-18 -112.5l-25 -25q-287 4 -467 4h-76q14 -121 76 -205t180 -84q109 0 277 70q45 -41 53 -127q-82 -66 -197.5 -113t-222.5 -47q-231 0 -347 137.5t-116 358.5zM432 799 q-51 -80 -70 -170h46q168 0 241 6q0 195 -139 194q-58 1 -78 -30zM571 1094l-352 374l14 50q109 63 265 59l202 -385q-35 -84 -129 -98z" />
<glyph unicode="&#xe9;" horiz-adv-x="1011" d="M61 467q0 209 141.5 381t346.5 172q111 0 192.5 -39t122.5 -103.5t60.5 -131t19.5 -136t-18 -112.5l-25 -25q-287 4 -467 4h-76q14 -121 76 -205t180 -84q109 0 277 70q45 -41 53 -127q-82 -66 -197.5 -113t-222.5 -47q-231 0 -347 137.5t-116 358.5zM432 799 q-51 -80 -70 -170h46q168 0 241 6q0 195 -139 194q-58 1 -78 -30zM397 1176l195 342q125 27 293 26l22 -59l-401 -398q-80 7 -109 89z" />
<glyph unicode="&#xea;" horiz-adv-x="1011" d="M61 467q0 209 141.5 381t346.5 172q111 0 192.5 -39t122.5 -103.5t60.5 -131t19.5 -136t-18 -112.5l-25 -25q-287 4 -467 4h-76q14 -121 76 -205t180 -84q109 0 277 70q45 -41 53 -127q-82 -66 -197.5 -113t-222.5 -47q-231 0 -347 137.5t-116 358.5zM432 799 q-51 -80 -70 -170h46q168 0 241 6q0 195 -139 194q-58 1 -78 -30zM752 1081l-226 205l-213 -205q-74 18 -104 82l225 353q92 20 184 18l242 -363q-38 -61 -108 -90z" />
<glyph unicode="&#xeb;" horiz-adv-x="1011" d="M61 467q0 209 141.5 381t346.5 172q111 0 192.5 -39t122.5 -103.5t60.5 -131t19.5 -136t-18 -112.5l-25 -25q-287 4 -467 4h-76q14 -121 76 -205t180 -84q109 0 277 70q45 -41 53 -127q-82 -66 -197.5 -113t-222.5 -47q-231 0 -347 137.5t-116 358.5zM432 799 q-51 -80 -70 -170h46q168 0 241 6q0 195 -139 194q-58 1 -78 -30zM309 1133q-57 0 -101 38.5t-44 92.5q0 72 49 132t123 60q55 0 100 -40t45 -95q0 -72 -50 -129t-122 -59zM741 1133q-53 0 -99 38.5t-46 92.5q0 70 51 131t121 61q57 0 101 -40t44 -95q0 -74 -49 -130 t-123 -58z" />
<glyph unicode="&#xec;" horiz-adv-x="724" d="M395 1100l-352 375l14 49q109 63 265 59l202 -385q-35 -84 -129 -98zM526 406v-80q0 -80 6 -154q94 -10 154 -37q0 -98 -12 -137q-111 4 -289 4q-80 0 -180.5 -2t-130.5 -2q-14 43 -15 137q92 10 164 35q8 59 8 115v501q-92 25 -161 33q-20 66 -9 125q199 70 449 76 l25 -25q-9 -272 -9 -589z" />
<glyph unicode="&#xed;" horiz-adv-x="724" d="M221 1194l195 342q125 27 293 27l22 -60l-401 -397q-80 6 -109 88zM526 406v-80q0 -80 6 -154q94 -10 154 -37q0 -98 -12 -137q-111 4 -289 4q-80 0 -180.5 -2t-130.5 -2q-14 43 -15 137q92 10 164 35q8 59 8 115v501q-92 25 -161 33q-20 66 -9 125q199 70 449 76l25 -25 q-9 -272 -9 -589z" />
<glyph unicode="&#xee;" horiz-adv-x="724" d="M526 406v-80q0 -80 6 -154q94 -10 154 -37q0 -98 -12 -137q-111 4 -289 4q-80 0 -180.5 -2t-130.5 -2q-14 43 -15 137q92 10 164 35q8 59 8 115v501q-92 25 -161 33q-20 66 -9 125q199 70 449 76l25 -25q-9 -272 -9 -589zM575 1102l-227 211l-211 -211q-72 16 -104 82 l225 352q92 20 184 18l242 -362q-39 -61 -109 -90z" />
<glyph unicode="&#xef;" horiz-adv-x="724" d="M526 406v-80q0 -80 6 -154q94 -10 154 -37q0 -98 -12 -137q-111 4 -289 4q-80 0 -180.5 -2t-130.5 -2q-14 43 -15 137q92 10 164 35q8 59 8 115v501q-92 25 -161 33q-20 66 -9 125q199 70 449 76l25 -25q-9 -272 -9 -589zM156 1137q-51 0 -93.5 37.5t-42.5 89.5 q0 70 46.5 129t115.5 59q49 0 92 -40t43 -91q0 -70 -47.5 -126t-113.5 -58zM539 1137q-49 0 -92.5 37.5t-43.5 89.5q0 70 48.5 129t113.5 59q53 0 94 -39t41 -92q0 -72 -45.5 -127t-115.5 -57z" />
<glyph unicode="&#xf0;" horiz-adv-x="1124" d="M530 1018q102 0 189 -80q-43 162 -139 287l-240 -160q-80 59 -94 168l225 115q-63 59 -149 131q12 78 79 110q123 -66 236 -145l231 158q78 -61 93 -168l-195 -101q289 -279 289 -712q0 -283 -140.5 -466.5t-382.5 -183.5q-225 0 -348 142.5t-123 355.5q0 223 144.5 386 t324.5 163zM543 821q-82 0 -107 -30q-76 -94 -76 -259q0 -135 53.5 -248.5t155.5 -113.5q82 0 107 31q63 82 74 280q-6 160 -66.5 250t-140.5 90z" />
<glyph unicode="&#xf1;" horiz-adv-x="1323" d="M438 1018l33 -17q12 -27 35 -98q145 117 313 117q129 0 225.5 -82t96.5 -238v-374q0 -80 6 -154q96 -10 153 -37q0 -100 -14 -137q-106 4 -287 4q-66 0 -146.5 -2t-107.5 -2q-10 41 -10 137q61 14 103 35q8 59 8 115v297q0 115 -33 173t-129 58q-66 0 -158 -51v-436 q0 -80 6 -154q80 -10 138 -37q0 -98 -13 -137q-102 4 -272 4q-80 0 -180.5 -2t-130.5 -2q-14 43 -15 137q92 10 164 35q8 59 8 115v501q-74 23 -161 33q-23 68 -9 125q174 62 377 74zM391 1157q-76 25 -100 94q49 92 123.5 149.5t142.5 57.5q53 0 138 -54t116 -54 q53 0 135 86q70 -23 103 -90q-53 -94 -128 -152.5t-145 -58.5q-53 0 -138 54t-112 54q-53 0 -135 -86z" />
<glyph unicode="&#xf2;" horiz-adv-x="1112" d="M569 1020q238 0 360 -140.5t122 -367.5q0 -207 -140.5 -374t-367.5 -167q-236 0 -359 139.5t-123 368.5q0 207 140.5 374t367.5 167zM573 170q80 0 103 31q74 94 74 260q0 84 -19.5 161.5t-69 138t-122.5 60.5q-80 0 -103 -30q-74 -94 -74 -261q0 -84 19.5 -161.5 t68.5 -138t123 -60.5zM575 1094l-352 374l15 50q109 63 264 59l203 -385q-36 -84 -130 -98z" />
<glyph unicode="&#xf3;" horiz-adv-x="1112" d="M569 1020q238 0 360 -140.5t122 -367.5q0 -207 -140.5 -374t-367.5 -167q-236 0 -359 139.5t-123 368.5q0 207 140.5 374t367.5 167zM573 170q80 0 103 31q74 94 74 260q0 84 -19.5 161.5t-69 138t-122.5 60.5q-80 0 -103 -30q-74 -94 -74 -261q0 -84 19.5 -161.5 t68.5 -138t123 -60.5zM401 1176l195 342q125 27 293 26l22 -59l-401 -398q-80 7 -109 89z" />
<glyph unicode="&#xf4;" horiz-adv-x="1112" d="M569 1020q238 0 360 -140.5t122 -367.5q0 -207 -140.5 -374t-367.5 -167q-236 0 -359 139.5t-123 368.5q0 207 140.5 374t367.5 167zM573 170q80 0 103 31q74 94 74 260q0 84 -19.5 161.5t-69 138t-122.5 60.5q-80 0 -103 -30q-74 -94 -74 -261q0 -84 19.5 -161.5 t68.5 -138t123 -60.5zM778 1081l-225 205l-213 -205q-74 18 -104 82l225 353q92 20 184 18l242 -363q-39 -61 -109 -90z" />
<glyph unicode="&#xf5;" horiz-adv-x="1112" d="M569 1020q238 0 360 -140.5t122 -367.5q0 -207 -140.5 -374t-367.5 -167q-236 0 -359 139.5t-123 368.5q0 207 140.5 374t367.5 167zM573 170q80 0 103 31q74 94 74 260q0 84 -19.5 161.5t-69 138t-122.5 60.5q-80 0 -103 -30q-74 -94 -74 -261q0 -84 19.5 -161.5 t68.5 -138t123 -60.5zM287 1157q-76 25 -101 94q49 92 124 149.5t143 57.5q53 0 138 -54t116 -54q53 0 135 86q70 -23 102 -90q-53 -94 -128 -152.5t-144 -58.5q-53 0 -138 54t-112 54q-53 0 -135 -86z" />
<glyph unicode="&#xf6;" horiz-adv-x="1112" d="M569 1020q238 0 360 -140.5t122 -367.5q0 -207 -140.5 -374t-367.5 -167q-236 0 -359 139.5t-123 368.5q0 207 140.5 374t367.5 167zM573 170q80 0 103 31q74 94 74 260q0 84 -19.5 161.5t-69 138t-122.5 60.5q-80 0 -103 -30q-74 -94 -74 -261q0 -84 19.5 -161.5 t68.5 -138t123 -60.5zM336 1133q-57 0 -101.5 38.5t-44.5 92.5q0 72 49.5 132t122.5 60q55 0 100.5 -40t45.5 -95q0 -72 -50 -129t-122 -59zM768 1133q-53 0 -99 38.5t-46 92.5q0 70 51 131t121 61q57 0 101 -40t44 -95q0 -74 -49 -130t-123 -58z" />
<glyph unicode="&#xf7;" d="M410 213q0 55 43 93t102 38t100 -38t41 -93q0 -57 -41 -99t-100 -42t-102 42t-43 99zM410 877q0 53 43 91t102 38t100 -38t41 -91q0 -59 -41 -101.5t-100 -42.5t-102 42.5t-43 101.5zM977 442h-844q-39 96 0 201h844q35 -101 0 -201z" />
<glyph unicode="&#xf8;" horiz-adv-x="1112" d="M176 -82l68 137q-182 133 -183 424q0 207 140.5 374t367.5 167q76 0 146 -16l71 141q92 -14 140 -64l-68 -141q193 -131 193 -428q0 -207 -140.5 -374t-367.5 -167q-82 0 -150 19l-69 -146q-93 13 -148 74zM573 170q176 0 177 291q0 102 -31 194l-227 -465q34 -20 81 -20 zM362 530q0 -98 27 -184l225 455q-37 20 -75 20q-177 0 -177 -291z" />
<glyph unicode="&#xf9;" horiz-adv-x="1273" d="M182 307v504q-74 33 -159 45q0 86 14 137q31 0 132 -2t185 -2h103l24 -24q-4 -184 -4 -535q0 -242 121 -242q72 0 182 103v520q-72 33 -149 45q0 86 14 137q31 0 129 -2t180 -2h101l24 -24q-4 -154 -4 -512v-127q0 -51 4 -142q57 4 131 23q41 -31 41 -88 q-59 -63 -140 -105.5t-159 -42.5q-43 0 -80.5 41t-62.5 107q-143 -147 -317 -148q-143 0 -226.5 87t-83.5 249zM614 1094l-352 374l14 50q109 63 265 59l202 -385q-35 -84 -129 -98z" />
<glyph unicode="&#xfa;" horiz-adv-x="1273" d="M182 307v504q-74 33 -159 45q0 86 14 137q31 0 132 -2t185 -2h103l24 -24q-4 -184 -4 -535q0 -242 121 -242q72 0 182 103v520q-72 33 -149 45q0 86 14 137q31 0 129 -2t180 -2h101l24 -24q-4 -154 -4 -512v-127q0 -51 4 -142q57 4 131 23q41 -31 41 -88 q-59 -63 -140 -105.5t-159 -42.5q-43 0 -80.5 41t-62.5 107q-143 -147 -317 -148q-143 0 -226.5 87t-83.5 249zM440 1176l195 342q125 27 293 26l22 -59l-401 -398q-80 7 -109 89z" />
<glyph unicode="&#xfb;" horiz-adv-x="1273" d="M182 307v504q-74 33 -159 45q0 86 14 137q31 0 132 -2t185 -2h103l24 -24q-4 -184 -4 -535q0 -242 121 -242q72 0 182 103v520q-72 33 -149 45q0 86 14 137q31 0 129 -2t180 -2h101l24 -24q-4 -154 -4 -512v-127q0 -51 4 -142q57 4 131 23q41 -31 41 -88 q-59 -63 -140 -105.5t-159 -42.5q-43 0 -80.5 41t-62.5 107q-143 -147 -317 -148q-143 0 -226.5 87t-83.5 249zM813 1081l-225 205l-213 -205q-74 18 -105 82l226 353q92 20 184 18l242 -363q-39 -61 -109 -90z" />
<glyph unicode="&#xfc;" horiz-adv-x="1273" d="M182 307v504q-74 33 -159 45q0 86 14 137q31 0 132 -2t185 -2h103l24 -24q-4 -184 -4 -535q0 -242 121 -242q72 0 182 103v520q-72 33 -149 45q0 86 14 137q31 0 129 -2t180 -2h101l24 -24q-4 -154 -4 -512v-127q0 -51 4 -142q57 4 131 23q41 -31 41 -88 q-59 -63 -140 -105.5t-159 -42.5q-43 0 -80.5 41t-62.5 107q-143 -147 -317 -148q-143 0 -226.5 87t-83.5 249zM352 1133q-57 0 -101 38.5t-44 92.5q0 72 49 132t123 60q55 0 100 -40t45 -95q0 -72 -50 -129t-122 -59zM784 1133q-53 0 -99 38.5t-46 92.5q0 70 51 131t121 61 q57 0 101 -40t44 -95q0 -74 -49 -130t-123 -58z" />
<glyph unicode="&#xfd;" horiz-adv-x="1200" d="M461 0l-307 821q-47 23 -138 35q0 80 15 137q27 0 102.5 -2t124.5 -2q16 0 123.5 2t206.5 2q16 -59 10 -137l-121 -37l137 -409v-185h9l194 594l-133 37q0 88 18 137q37 0 131.5 -2t157.5 -2q49 0 180 4q18 -66 13 -137q-51 -25 -131 -35l-289 -803q-94 -262 -193.5 -404 t-232.5 -142q-164 0 -254 45q-12 88 45 157h31q281 0 362 242l29 84h-90zM483 1176l195 342q125 27 293 26l22 -59l-401 -398q-80 7 -109 89z" />
<glyph unicode="&#xfe;" horiz-adv-x="1165" d="M453 954v-28q133 88 278 88q168 0 270.5 -136.5t102.5 -363.5q0 -201 -130 -369t-319 -168q-104 0 -202 52v-217q0 -80 6 -154q135 -6 241 -37q0 -96 -12 -135q-225 4 -377 4q-80 0 -178 -2t-133 -2q-14 43 -14 135q92 10 164 35q8 59 8 115v1564q-92 25 -162 33 q-20 66 -8 125q199 70 448 76l25 -25q-8 -273 -8 -590zM606 807q-63 0 -153 -47v-508q94 -76 186 -76q27 0 52.5 11.5t33.5 23.5q78 102 78 252q0 141 -52.5 242.5t-144.5 101.5z" />
<glyph unicode="&#xff;" horiz-adv-x="1200" d="M461 0l-307 821q-47 23 -138 35q0 80 15 137q27 0 102.5 -2t124.5 -2q16 0 123.5 2t206.5 2q16 -59 10 -137l-121 -37l137 -409v-185h9l194 594l-133 37q0 88 18 137q37 0 131.5 -2t157.5 -2q49 0 180 4q18 -66 13 -137q-51 -25 -131 -35l-289 -803q-94 -262 -193.5 -404 t-232.5 -142q-164 0 -254 45q-12 88 45 157h31q281 0 362 242l29 84h-90zM395 1133q-57 0 -101 38.5t-44 92.5q0 72 49 132t123 60q55 0 100 -40t45 -95q0 -72 -50 -129t-122 -59zM827 1133q-53 0 -99 38.5t-46 92.5q0 70 51 131t121 61q57 0 101 -40t44 -95q0 -74 -49 -130 t-123 -58z" />
<glyph unicode="&#x152;" horiz-adv-x="1878" d="M1559 799l24 -25q-4 -106 -22 -168l-367 6v-413h391q39 106 74 252q86 12 178 -15q0 -174 -22 -411l-25 -27q-168 4 -586 4h-219q-178 -27 -301 -27q-297 0 -463 192.5t-166 494.5q0 178 79 343.5t235.5 278.5t353.5 113q123 0 283 -27h286q354 0 482 4l24 -26 q6 -248 -26 -400q-104 -18 -183 0q-10 121 -30 226h-365v-381zM786 203q68 0 105 4v958q-90 4 -135 4q-68 0 -138.5 -17t-95.5 -40q-147 -139 -147 -375q0 -229 102 -381.5t309 -152.5z" />
<glyph unicode="&#x153;" horiz-adv-x="1699" d="M569 1020q215 0 349 -150q143 150 319 150q111 0 192.5 -39t122.5 -103.5t60.5 -131t19.5 -136t-18 -112.5l-25 -25q-229 4 -375 4h-167q14 -121 75.5 -205t180.5 -84q109 0 276 70q45 -41 53 -127q-82 -66 -197.5 -113t-222.5 -47q-211 0 -340 146q-145 -145 -329 -146 q-236 0 -359 139.5t-123 368.5q0 207 140.5 374t367.5 167zM750 467q-2 135 -54.5 244.5t-156.5 109.5q-176 0 -177 -291q0 -84 19.5 -161.5t69 -138t122.5 -60.5q172 0 177 276v21zM1198 829q-53 0 -93 -55t-54 -145h143q45 0 143 6q0 194 -139 194z" />
<glyph unicode="&#x178;" horiz-adv-x="1380" d="M1217 1192l-375 -688v-154q0 -98 8 -170q121 -8 231 -39q4 -80 -14 -143q-96 4 -379 4q-82 0 -209 -2t-174 -2q-20 59 -20 143q106 8 243 39q10 49 11 125v203l-369 680q-92 31 -164 39q0 82 17 147q43 0 155.5 -2t186.5 -2q242 0 325 4q14 -68 12 -143l-172 -35 l234 -432l221 432l-184 35q0 72 12 143q33 0 125 -2t154 -2q201 0 266 4q12 -72 10 -143q-73 -31 -151 -39zM520 1511q-55 0 -99 37t-44 90q0 70 49 129.5t119 59.5q53 0 95 -38t42 -93q0 -70 -47 -126.5t-115 -58.5zM950 1511q-51 0 -95 38t-44 89q0 70 48 129.5t116 59.5 q57 0 100 -38t43 -93q0 -72 -48 -127.5t-120 -57.5z" />
<glyph unicode="&#x2c6;" horiz-adv-x="849" d="M637 1081l-225 205l-213 -205q-74 18 -105 82l225 353q92 20 185 18l241 -363q-38 -61 -108 -90z" />
<glyph unicode="&#x2dc;" horiz-adv-x="849" d="M145 1157q-76 25 -100 94q49 92 124 149.5t142 57.5q53 0 138.5 -54t115.5 -54q53 0 135 86q70 -23 103 -90q-53 -94 -128 -152.5t-145 -58.5q-53 0 -138 54t-111 54q-54 0 -136 -86z" />
<glyph unicode="&#x2000;" horiz-adv-x="956" />
<glyph unicode="&#x2001;" horiz-adv-x="1914" />
<glyph unicode="&#x2002;" horiz-adv-x="956" />
<glyph unicode="&#x2003;" horiz-adv-x="1914" />
<glyph unicode="&#x2004;" horiz-adv-x="636" />
<glyph unicode="&#x2005;" horiz-adv-x="477" />
<glyph unicode="&#x2006;" horiz-adv-x="317" />
<glyph unicode="&#x2007;" horiz-adv-x="317" />
<glyph unicode="&#x2008;" horiz-adv-x="237" />
<glyph unicode="&#x2009;" horiz-adv-x="382" />
<glyph unicode="&#x200a;" horiz-adv-x="104" />
<glyph unicode="&#x2010;" horiz-adv-x="782" d="M649 418l-518 -8q-18 100 4 206l510 11q24 -109 4 -209z" />
<glyph unicode="&#x2011;" horiz-adv-x="782" d="M649 418l-518 -8q-18 100 4 206l510 11q24 -109 4 -209z" />
<glyph unicode="&#x2012;" horiz-adv-x="782" d="M649 418l-518 -8q-18 100 4 206l510 11q24 -109 4 -209z" />
<glyph unicode="&#x2013;" horiz-adv-x="999" d="M889 422h-778q-18 96 0 188h778q18 -96 0 -188z" />
<glyph unicode="&#x2014;" horiz-adv-x="2048" d="M1845 422h-1642q-20 92 0 188h1642q25 -92 0 -188z" />
<glyph unicode="&#x2018;" horiz-adv-x="501" d="M428 1212q-8 -70 -62.5 -115.5t-123.5 -45.5q-78 0 -126 51t-48 133q0 111 100 231.5t223 180.5q51 -20 68 -74q-125 -141 -125 -242q0 -88 94 -119z" />
<glyph unicode="&#x2019;" horiz-adv-x="501" d="M74 1473q8 70 62 115.5t124 45.5q78 0 126 -51t48 -133q0 -111 -100.5 -231.5t-222.5 -180.5q-53 23 -68 74q125 141 125 242q0 88 -94 119z" />
<glyph unicode="&#x201a;" horiz-adv-x="522" d="M74 98q8 70 62 116t124 46q78 0 126 -51t48 -133q0 -111 -100.5 -231.5t-222.5 -180.5q-53 20 -68 74q125 141 125 242q0 87 -94 118z" />
<glyph unicode="&#x201c;" horiz-adv-x="952" d="M428 1212q-8 -70 -62.5 -115.5t-123.5 -45.5q-78 0 -126 51t-48 133q0 111 100 231.5t223 180.5q51 -20 68 -74q-125 -141 -125 -242q0 -88 94 -119zM879 1212q-8 -70 -62.5 -115.5t-124.5 -45.5q-78 0 -126 51t-48 133q0 111 100.5 231.5t223.5 180.5q51 -20 67 -74 q-125 -141 -125 -242q1 -88 95 -119z" />
<glyph unicode="&#x201d;" horiz-adv-x="952" d="M74 1473q8 70 62 115.5t124 45.5q78 0 126 -51t48 -133q0 -111 -100.5 -231.5t-222.5 -180.5q-53 23 -68 74q125 141 125 242q0 88 -94 119zM524 1473q8 70 62.5 115.5t124.5 45.5q78 0 126 -51t48 -133q0 -111 -100.5 -231.5t-223.5 -180.5q-53 23 -67 74 q125 141 124 242q0 88 -94 119z" />
<glyph unicode="&#x201e;" horiz-adv-x="972" d="M74 98q8 70 62 116t124 46q78 0 126 -51t48 -133q0 -111 -100.5 -231.5t-222.5 -180.5q-53 20 -68 74q125 141 125 242q0 87 -94 118zM524 98q8 70 62.5 116t124.5 46q78 0 126 -51t48 -133q0 -111 -100.5 -231.5t-223.5 -180.5q-53 20 -67 74q125 141 124 242 q0 87 -94 118z" />
<glyph unicode="&#x2022;" horiz-adv-x="1069" d="M309 508q0 88 65.5 148.5t160.5 60.5q96 0 160.5 -60.5t64.5 -148.5q0 -90 -65.5 -154.5t-160 -64.5t-160 64.5t-65.5 154.5z" />
<glyph unicode="&#x2026;" horiz-adv-x="1867" d="M115 166q0 80 56 132t140 52t140.5 -52t56.5 -132q0 -82 -57.5 -138.5t-139.5 -56.5t-139 56.5t-57 138.5zM737 166q0 80 56.5 132t140.5 52t140 -52t56 -132q0 -82 -57 -138.5t-139 -56.5t-139.5 56.5t-57.5 138.5zM1360 166q0 80 56.5 132t140 52t140 -52t56.5 -132 q0 -82 -57.5 -138.5t-139 -56.5t-139 56.5t-57.5 138.5z" />
<glyph unicode="&#x202f;" horiz-adv-x="382" />
<glyph unicode="&#x2039;" horiz-adv-x="739" d="M647 899l-258 -377l268 -368q-41 -80 -135 -115l-436 414q-6 66 14 133l428 409q74 -26 119 -96z" />
<glyph unicode="&#x203a;" horiz-adv-x="739" d="M92 133l258 377l-268 369q41 80 135 114l436 -413q6 -66 -14 -134l-428 -409q-74 26 -119 96z" />
<glyph unicode="&#x205f;" horiz-adv-x="477" />
<glyph unicode="&#x20ac;" horiz-adv-x="997" d="M55 483h84v19q0 47 4 71h-88q-18 66 0 134h119q55 156 174 257t283 101q166 0 287 -49q-2 -201 -41 -320q-72 -12 -154 13q-6 92 -16 145q-45 10 -99 10q-33 0 -63.5 -5t-52 -12t-25.5 -7t-14.5 -15.5t-24.5 -47.5t-25 -70h215q20 -53 0 -134h-233v-12q0 -53 2 -78h231 q18 -55 0 -133h-202q59 -172 215 -172q59 0 102 15q14 147 17 161q82 27 161 15q25 -115 25 -328q-156 -63 -324 -64q-188 0 -305 101.5t-153 271.5h-99q-18 67 0 133z" />
<glyph unicode="&#x2122;" horiz-adv-x="1527" d="M39 1370l16 16h858l91 -286v-111h8l104 387h326q14 -45 8 -90l-78 -20l25 -371l82 -18q10 -49 -6 -91h-316q-16 41 -6 91l72 18l-17 240l2 100h-8l-115 -436q-72 -16 -167 -17l-93 340l-8 123h-8l-27 -348l54 -20q6 -45 -7 -91h-241q-12 37 -6 91l61 20l29 371h-213v-371 l76 -20q0 -57 -7 -91h-317q-12 43 -6 93l82 18v371h-111l-12 -144q-59 -23 -109 0z" />
<glyph unicode="&#xe000;" horiz-adv-x="995" d="M0 995h995v-995h-995v995z" />
<glyph unicode="&#xfb01;" horiz-adv-x="1421" d="M66 967q59 23 157 32v9q0 250 146.5 405.5t384.5 155.5q127 0 271 -24.5t239 -65.5q-6 -201 -68 -326q-111 -20 -238 0q-29 84 -30 199q-104 18 -191 18q-129 0 -155 -35q-63 -94 -64 -336v-6h187q182 0 501 27l25 -25q-8 -268 -8 -573v-100q0 -80 6 -150q94 -10 153 -37 q0 -98 -12 -137q-111 4 -289 4q-80 0 -180 -2t-131 -2q-14 39 -14 137q84 8 164 33q8 47 8 100v537h-410v-479q0 -76 6 -154q86 -8 154 -37q0 -98 -12 -137q-172 4 -289 4q-80 0 -178.5 -2t-132.5 -2q-14 39 -15 137q84 8 164 33q8 59 8 113v524q-72 18 -147 26 q-16 62 -10 136z" />
<glyph unicode="&#xfb02;" horiz-adv-x="1413" d="M78 831q-23 68 -10 136q66 20 155 30v13q0 248 136.5 403.5t330.5 155.5q137 0 256 -37q129 31 260 37l25 -25q-8 -272 -8 -590v-628q0 -80 6 -154q94 -10 153 -37q0 -98 -12 -137q-111 4 -295 4q-76 0 -174 -2t-129 -2q-14 43 -14 137q90 10 162 35q8 59 8 115v1034 q-109 51 -213 51q-117 0 -137 -33q-59 -100 -60 -331v-13l248 -2q4 -102 -8 -186h-240v-479q0 -80 6 -154q94 -10 154 -37q0 -98 -12 -137q-111 4 -289 4q-80 0 -180.5 -2t-130.5 -2q-14 43 -15 137q92 10 164 35q8 59 8 115v520q-22 6 -145 26z" />
<glyph unicode="&#xfb03;" horiz-adv-x="2125" d="M756 135q84 8 164 33q8 59 8 113v524h-410v-483q0 -82 6 -150q86 -8 154 -37q0 -98 -12 -137q-172 4 -289 4q-80 0 -178.5 -2t-132.5 -2q-14 39 -15 137q84 8 164 33q8 59 8 113v524q-23 6 -145 26q-23 68 -10 136q66 20 155 30q8 225 148.5 362.5t349.5 137.5 q213 0 383 -57q145 129 362 129q129 0 273.5 -24.5t238.5 -65.5q-6 -201 -67 -326q-111 -20 -238 0q-29 84 -31 199q-106 18 -194 18q-133 0 -160 -35q-66 -92 -65 -336v-6h186q182 0 502 27l24 -25q-8 -268 -8 -573v-100q0 -80 6 -150q94 -10 154 -37q0 -98 -12 -137 q-111 4 -289 4q-80 0 -180.5 -2t-130.5 -2q-14 39 -15 137q84 8 164 33q8 47 8 100v537h-409v-479q0 -76 6 -154q86 -8 153 -37q0 -98 -12 -137q-172 4 -289 4q-80 0 -178 -2t-133 -2q-14 39 -14 137zM584 1268q-57 -90 -66 -275h410v15q0 125 41 231q-131 59 -256 59 q-111 1 -129 -30z" />
<glyph unicode="&#xfb04;" horiz-adv-x="2117" d="M1223 1006v-13h247q4 -104 -8 -188h-239v-479q0 -80 6 -154q94 -10 153 -37q0 -98 -12 -137q-111 4 -289 4q-80 0 -180 -2t-131 -2q-14 43 -14 137q92 10 164 35q8 59 8 115v520h-410v-483q0 -82 6 -150q86 -8 154 -37q0 -98 -12 -137q-172 4 -289 4q-80 0 -178.5 -2 t-132.5 -2q-14 39 -15 137q84 8 164 33q8 59 8 113v524q-23 6 -145 26q-23 68 -10 136q66 20 155 30q8 225 148.5 362.5t349.5 137.5q199 0 371 -53q129 125 303 125q137 0 256 -37q129 31 260 37l24 -25q-8 -272 -8 -590v-628q0 -80 6 -154q94 -10 154 -37q0 -98 -12 -137 q-111 4 -295 4q-76 0 -174.5 -2t-128.5 -2q-14 43 -15 137q90 10 162 35q8 59 8 115v1034q-109 51 -213 51q-117 0 -137 -33q-59 -100 -59 -331zM584 1268q-57 -90 -66 -275h410v17q0 129 37 231q-129 57 -252 57q-111 1 -129 -30z" />
</font>
</defs>
</svg>
